<?xml version="1.0" standalone="no"?>
<!DOCTYPE svg PUBLIC "-//W3C//DTD SVG 1.1//EN" "http://www.w3.org/Graphics/SVG/1.1/DTD/svg11.dtd" >
<svg xmlns="http://www.w3.org/2000/svg">
<metadata>Generated by IcoMoon</metadata>
<defs>
<font id="icomoon" horiz-adv-x="1024">
<font-face units-per-em="1024" ascent="960" descent="-64" />
<missing-glyph horiz-adv-x="1024" />
<glyph unicode="&#x20;" horiz-adv-x="512" d="" />
<glyph unicode="&#xe900;" glyph-name="add-circle-icon" d="M64 448c0 247.423 200.577 448 448 448s448-200.577 448-448c0-247.424-200.576-448-448-448s-448 200.576-448 448zM512 832c-212.077 0-384-171.923-384-384s171.923-384 384-384c212.077 0 384 171.923 384 384s-171.923 384-384 384zM512 704c-17.673 0-32-14.327-32-32v-192h-192c-17.673 0-32-14.327-32-32s14.327-32 32-32h192v-192c0-17.67 14.327-32 32-32s32 14.33 32 32v192h192c17.67 0 32 14.327 32 32s-14.33 32-32 32h-192v192c0 17.673-14.327 32-32 32z" />
<glyph unicode="&#xe901;" glyph-name="add-icon" d="M554.667 917.333c0 23.564-19.103 42.667-42.667 42.667s-42.667-19.102-42.667-42.667v-426.667h-426.667c-23.564 0-42.667-19.103-42.667-42.667s19.102-42.667 42.667-42.667h426.667v-426.667c0-23.563 19.103-42.667 42.667-42.667s42.667 19.103 42.667 42.667v426.667h426.667c23.563 0 42.667 19.103 42.667 42.667s-19.103 42.667-42.667 42.667h-426.667v426.667z" />
<glyph unicode="&#xe902;" glyph-name="arrow-back" d="M347.679 786.866c13.633 13.633 35.736 13.633 49.369 0s13.633-35.736 0-49.369l-254.588-254.588h823.358c19.279 0 34.909-15.629 34.909-34.909s-15.63-34.909-34.909-34.909h-823.358l254.588-254.59c13.633-13.633 13.633-35.733 0-49.366s-35.736-13.633-49.369 0l-314.182 314.18c-13.633 13.633-13.633 35.736 0 49.369l314.182 314.182z" />
<glyph unicode="&#xe903;" glyph-name="arrow-left-icon" d="M347.679 786.866c13.633 13.633 35.736 13.633 49.369 0s13.633-35.736 0-49.369l-254.588-254.588h823.358c19.279 0 34.909-15.629 34.909-34.909s-15.63-34.909-34.909-34.909h-823.358l254.588-254.59c13.633-13.633 13.633-35.733 0-49.366s-35.736-13.633-49.369 0l-314.182 314.18c-13.633 13.633-13.633 35.736 0 49.369l314.182 314.182z" />
<glyph unicode="&#xe904;" glyph-name="arrow-right" d="M309.76 939.52c16.966 12.725 41.035 9.286 53.76-7.68l345.6-460.8c10.24-13.654 10.24-32.425 0-46.080l-345.6-460.8c-12.725-16.968-36.794-20.403-53.76-7.68s-20.405 36.792-7.68 53.76l328.32 437.76-328.32 437.76c-12.725 16.966-9.286 41.035 7.68 53.76z" />
<glyph unicode="&#xe905;" glyph-name="bookmark-icon" d="M162.909 797.091c0 77.119 62.518 139.636 139.636 139.636h418.909c77.121 0 139.636-62.518 139.636-139.636v-802.909c0-12.367-6.544-23.813-17.208-30.087-10.659-6.274-23.841-6.437-34.653-0.428l-297.23 165.125-297.229-165.125c-10.813-6.009-23.996-5.846-34.657 0.428s-17.206 17.72-17.206 30.087v802.909zM302.545 866.909c-38.56 0-69.818-31.259-69.818-69.818v-743.582l262.319 145.734c10.543 5.86 23.363 5.86 33.907 0l262.319-145.734v743.582c0 38.56-31.26 69.818-69.818 69.818h-418.909z" />
<glyph unicode="&#xe906;" glyph-name="camera-icon" d="M512 630.857c-121.187 0-219.429-98.241-219.429-219.429s98.242-219.429 219.429-219.429c121.187 0 219.429 98.242 219.429 219.429s-98.242 219.429-219.429 219.429zM365.714 411.429c0 80.791 65.496 146.286 146.286 146.286s146.286-65.494 146.286-146.286c0-80.79-65.496-146.286-146.286-146.286s-146.286 65.496-146.286 146.286zM417.434 850.286c-19.397 0-38.001-7.706-51.719-21.423l-51.72-51.72h-167.709c-80.791 0-146.286-65.494-146.286-146.286v-438.857c0-80.79 65.494-146.286 146.286-146.286h731.429c80.79 0 146.286 65.496 146.286 146.286v438.857c0 80.791-65.496 146.286-146.286 146.286h-167.709l-51.719 51.72c-13.718 13.717-32.322 21.423-51.719 21.423h-189.133zM417.434 777.143h189.133l62.431-62.431c6.857-6.858 16.161-10.711 25.86-10.711h182.857c40.397 0 73.143-32.747 73.143-73.143v-438.857c0-40.397-32.746-73.143-73.143-73.143h-731.429c-40.396 0-73.143 32.746-73.143 73.143v438.857c0 40.396 32.747 73.143 73.143 73.143h182.857c9.699 0 19.001 3.853 25.86 10.711l62.431 62.431z" />
<glyph unicode="&#xe907;" glyph-name="chat-icon" d="M58.182 485.646c0 261.767 204.052 451.081 453.818 451.081 123.56 0 237.186-42.009 320.195-120.47 83.288-78.73 133.623-192.189 133.623-330.611 0-135.159-66.639-257.452-153.553-349.296-86.663-91.583-197.516-157.221-293.418-176.398-10.256-2.053-20.891 0.6-28.979 7.233-8.088 6.628-12.777 16.538-12.777 26.996v106.817c-104.569 8.872-203.594 40.49-279.518 98.025-85.169 64.545-139.391 160.498-139.391 286.622zM546.909 133.818v-93.873c69.935 24.259 148.978 74.999 214.644 144.393 78.904 83.382 134.447 189.366 134.447 301.307 0 120.661-43.441 215.287-111.765 279.873-68.613 64.854-164.44 101.39-272.235 101.39-212.949 0-384-159.776-384-381.263 0-103.522 43.382-179.172 111.742-230.977 69.522-52.685 166.688-81.85 273.603-85.969 18.739-0.721 33.564-16.123 33.564-34.881zM372.364 482.909c0 38.56-31.259 69.818-69.818 69.818s-69.818-31.259-69.818-69.818c0-38.558 31.259-69.818 69.818-69.818s69.818 31.26 69.818 69.818zM512 413.091c-38.56 0-69.818 31.26-69.818 69.818 0 38.56 31.259 69.818 69.818 69.818s69.818-31.259 69.818-69.818c0-38.558-31.26-69.818-69.818-69.818zM721.455 413.091c-38.558 0-69.818 31.26-69.818 69.818 0 38.56 31.26 69.818 69.818 69.818s69.818-31.259 69.818-69.818c0-38.558-31.26-69.818-69.818-69.818z" />
<glyph unicode="&#xe908;" glyph-name="check-icon" d="M999.951 807.953c14.996-14.996 14.996-39.31 0-54.306l-652.798-652.798c-14.996-14.996-39.31-14.996-54.306 0l-268.8 268.798c-14.996 14.996-14.996 39.31 0 54.306s39.31 14.996 54.306 0l241.647-241.645 625.649 625.645c14.996 14.996 39.306 14.996 54.303 0z" />
<glyph unicode="&#xe909;" glyph-name="close-icon" d="M968.835 844.497c16.663 16.662 16.663 43.678 0 60.34s-43.674 16.662-60.336 0l-396.497-396.496-396.496 396.496c-16.662 16.662-43.678 16.662-60.34 0s-16.662-43.678 0-60.34l396.496-396.496-396.497-396.499c-16.662-16.663-16.662-43.674 0-60.336s43.678-16.663 60.34 0l396.498 396.498 396.497-396.498c16.663-16.663 43.679-16.663 60.342 0s16.663 43.674 0 60.336l-396.498 396.499 396.493 396.496z" />
<glyph unicode="&#xe90a;" glyph-name="comment-icon" d="M162.909 913.455c-77.119 0-139.636-62.518-139.636-139.636v-488.727c0-77.121 62.518-139.636 139.636-139.636h69.818v-104.727c0-13.419 7.692-25.651 19.787-31.465s26.451-4.18 36.93 4.203l164.984 131.989h406.663c77.121 0 139.636 62.515 139.636 139.636v488.727c0 77.119-62.515 139.636-139.636 139.636h-698.182zM93.091 773.818c0 38.56 31.259 69.818 69.818 69.818h698.182c38.558 0 69.818-31.259 69.818-69.818v-488.727c0-38.558-31.26-69.818-69.818-69.818h-418.909c-7.927 0-15.618-2.7-21.807-7.647l-117.829-94.264v67.002c0 19.279-15.629 34.909-34.909 34.909h-104.727c-38.56 0-69.818 31.26-69.818 69.818v488.727zM267.636 704h488.727c19.279 0 34.909-15.629 34.909-34.909s-15.63-34.909-34.909-34.909h-488.727c-19.28 0-34.909 15.629-34.909 34.909s15.629 34.909 34.909 34.909zM267.636 564.364h488.727c19.279 0 34.909-15.629 34.909-34.909s-15.63-34.909-34.909-34.909h-488.727c-19.28 0-34.909 15.629-34.909 34.909s15.629 34.909 34.909 34.909zM232.727 389.818c0-19.279 15.629-34.909 34.909-34.909h279.273c19.279 0 34.909 15.63 34.909 34.909s-15.63 34.909-34.909 34.909h-279.273c-19.28 0-34.909-15.63-34.909-34.909z" />
<glyph unicode="&#xe90b;" glyph-name="dropdown-icon" d="M972.803 704h-921.6c-45.614 0-68.458-55.15-36.204-87.404l460.8-460.8c19.995-19.996 52.413-19.996 72.408 0l460.8 460.8c32.258 32.254 9.411 87.404-36.204 87.404z" />
<glyph unicode="&#xe90c;" glyph-name="dropup-icon" d="M51.203 192h921.6c45.614 0 68.462 55.15 36.204 87.404l-460.8 460.8c-19.995 19.995-52.413 19.995-72.408 0l-460.8-460.8c-32.254-32.254-9.41-87.404 36.204-87.404z" />
<glyph unicode="&#xe90d;" glyph-name="eyeclose-icon" d="M885.774 821.775c13.633-13.633 13.633-35.736 0-49.369l-698.183-698.18c-13.633-13.633-35.736-13.633-49.369 0s-13.633 35.733 0 49.366l74.57 74.57c-58.225 43.087-101.935 93.333-132.237 136.136-18.18 25.684-31.773 49.022-40.953 67.081-4.575 9.001-8.19 16.957-10.761 23.444-1.272 3.211-2.433 6.421-3.333 9.438l-0.017 0.058c-0.566 1.894-2.218 7.424-2.218 13.679 0 5.079 1.060 9.368 1.493 11.066 0.607 2.378 1.362 4.736 2.122 6.901 1.535 4.373 3.613 9.439 6.108 14.948 5.025 11.093 12.323 25.263 21.907 41.381 19.165 32.232 48.044 73.224 87.33 113.665 78.652 80.965 200.599 161.13 369.767 161.13 93.784 0 173.326-24.695 239.030-60.688l85.374 85.373c13.633 13.633 35.738 13.633 49.371 0zM633.363 618.733l65.88 65.882c-52.755 25.733-114.907 42.658-187.243 42.658-145.014 0-249.976-68.198-319.688-139.96-34.897-35.923-60.563-72.386-77.398-100.699-8.416-14.155-14.481-26.031-18.32-34.506-0.687-1.518-1.286-2.888-1.801-4.108 1.621-3.835 3.948-8.883 7.047-14.982 7.657-15.064 19.497-35.492 35.699-58.378 28.646-40.467 70.183-87.575 125.251-126.478l78.476 78.476c-24.382 34.239-38.722 76.127-38.722 121.363 0 115.678 93.776 209.455 209.455 209.455 45.238 0 87.124-14.34 121.363-38.722zM92.434 454.151c-0.152 0.647-0.221 0.737-0.027 0.089l0.027-0.089zM847.016 622.87c14.285 12.946 36.361 11.859 49.31-2.427 34.262-37.812 59.522-75.089 76.339-104.239 8.401-14.568 14.834-27.346 19.284-37.4 2.206-4.989 4.073-9.634 5.46-13.698 0.689-2.015 1.387-4.245 1.946-6.525 0.414-1.68 1.373-5.742 1.373-10.581 0-5.079-1.061-9.368-1.494-11.066-0.605-2.378-1.359-4.736-2.122-6.901-1.531-4.372-3.612-9.439-6.107-14.948-5.027-11.093-12.325-25.262-21.909-41.38-19.163-32.233-48.044-73.225-87.329-113.664-78.653-80.966-200.597-161.131-369.766-161.131-36.101 0-70.174 3.663-102.224 10.263-18.883 3.887-31.039 22.346-27.15 41.23s22.349 31.041 41.232 27.15c27.441-5.651 56.794-8.825 88.142-8.825 145.012 0 249.977 68.198 319.688 139.962 34.895 35.919 60.56 72.383 77.396 100.697 8.42 14.155 14.48 26.030 18.32 34.506 0.689 1.518 1.289 2.888 1.801 4.108-0.33 0.785-0.698 1.636-1.103 2.55-3.309 7.482-8.574 18.042-15.914 30.769-14.676 25.44-37.097 58.579-67.598 92.241-12.949 14.287-11.86 36.363 2.425 49.309z" />
<glyph unicode="&#xe90e;" glyph-name="eyeopen-icon" d="M512 238.545c115.679 0 209.455 93.775 209.455 209.455s-93.775 209.455-209.455 209.455c-115.678 0-209.455-93.776-209.455-209.455s93.776-209.455 209.455-209.455zM581.818 448c0-38.56-31.26-69.818-69.818-69.818s-69.818 31.259-69.818 69.818c0 38.56 31.26 69.818 69.818 69.818s69.818-31.259 69.818-69.818zM142.233 635.96c78.652 80.965 200.599 161.131 369.767 161.131s291.114-80.165 369.766-161.131c39.284-40.441 68.166-81.432 87.329-113.664 9.584-16.118 16.882-30.288 21.909-41.381 2.495-5.509 4.575-10.575 6.107-14.948 0.763-2.166 1.517-4.523 2.122-6.901 0.433-1.698 1.494-5.987 1.494-11.066s-1.061-9.368-1.494-11.066c-0.605-2.378-1.359-4.736-2.122-6.901-1.531-4.373-3.612-9.439-6.107-14.948-5.027-11.093-12.325-25.263-21.909-41.381-19.163-32.233-48.044-73.225-87.329-113.664-78.653-80.966-200.597-161.131-369.766-161.131-169.168 0-291.115 80.165-369.767 161.131-39.285 40.439-68.164 81.431-87.33 113.664-9.584 16.118-16.883 30.288-21.907 41.381-2.495 5.509-4.574 10.575-6.108 14.948-0.76 2.166-1.515 4.523-2.122 6.901-0.433 1.698-1.493 5.987-1.493 11.066s1.060 9.368 1.493 11.066c0.607 2.378 1.362 4.736 2.122 6.901 1.535 4.373 3.613 9.439 6.108 14.948 5.025 11.093 12.323 25.263 21.907 41.381 19.165 32.232 48.044 73.224 87.33 113.664zM94.793 448c0.515-1.22 1.114-2.59 1.801-4.108 3.839-8.475 9.904-20.351 18.32-34.506 16.835-28.313 42.501-64.778 77.398-100.697 69.712-71.764 174.674-139.962 319.688-139.962 145.012 0 249.977 68.198 319.688 139.962 34.895 35.919 60.56 72.384 77.396 100.697 8.42 14.155 14.48 26.030 18.32 34.506 0.689 1.518 1.289 2.888 1.801 4.108-0.512 1.22-1.112 2.59-1.801 4.108-3.84 8.475-9.9 20.351-18.32 34.506-16.835 28.313-42.501 64.776-77.396 100.699-69.711 71.762-174.676 139.96-319.688 139.96-145.014 0-249.976-68.198-319.688-139.96-34.897-35.923-60.563-72.386-77.398-100.699-8.416-14.155-14.481-26.030-18.32-34.506-0.687-1.518-1.286-2.888-1.801-4.108z" />
<glyph unicode="&#xe90f;" glyph-name="facebook" d="M512 960c-282.752 0-512-229.248-512-512s229.248-512 512-512c282.752 0 512 229.248 512 512s-229.248 512-512 512zM640 618.667h-57.6c-22.955 0-27.733-9.429-27.733-33.195v-52.139h85.333l-8.917-85.333h-76.416v-298.667h-128v298.667h-85.333v85.333h85.333v98.475c0 75.477 39.723 114.859 129.237 114.859h84.096v-128z" />
<glyph unicode="&#xe910;" glyph-name="faceid-icon" d="M256 960h-9.046c-34.923 0.001-63.747 0.001-87.213-1.948-24.378-2.024-46.771-6.371-67.747-17.267-31.171-16.192-56.587-41.608-72.779-72.779-10.896-20.977-15.243-43.37-17.267-67.747-1.949-23.467-1.948-52.289-1.948-87.213v-9.046c0-23.564 19.103-42.667 42.667-42.667s42.667 19.102 42.667 42.667v7.253c0 37.164 0.034 62.427 1.655 81.943 1.578 19.005 4.438 28.707 7.952 35.473 8.096 15.585 20.804 28.293 36.39 36.39 6.766 3.514 16.468 6.374 35.473 7.952 19.516 1.621 44.78 1.655 81.943 1.655h7.253c23.564 0 42.667 19.102 42.667 42.667s-19.102 42.667-42.667 42.667zM1024 192c0 23.565-19.102 42.667-42.667 42.667s-42.667-19.102-42.667-42.667v-7.253c0-37.163-0.034-62.426-1.655-81.941-1.579-19.008-4.437-28.71-7.953-35.473-8.094-15.586-20.804-28.297-36.39-36.39-6.763-3.516-16.465-6.374-35.473-7.953-19.516-1.621-44.779-1.655-81.941-1.655h-7.253c-23.565 0-42.667-19.102-42.667-42.667s19.102-42.667 42.667-42.667h9.045c34.923 0 63.748 0 87.215 1.95 24.375 2.022 46.771 6.37 67.746 17.263 31.172 16.192 56.589 41.609 72.781 72.781 10.893 20.975 15.241 43.371 17.263 67.746 1.95 23.467 1.95 52.288 1.95 87.206v9.054zM42.667 234.667c23.564 0 42.667-19.102 42.667-42.667v-7.253c0-37.163 0.034-62.426 1.655-81.941 1.578-19.008 4.438-28.71 7.952-35.473 8.096-15.586 20.804-28.297 36.39-36.39 6.766-3.516 16.468-6.374 35.473-7.953 19.516-1.621 44.78-1.655 81.943-1.655h7.253c23.564 0 42.667-19.102 42.667-42.667s-19.102-42.667-42.667-42.667h-9.046c-34.921 0-63.747 0-87.213 1.95-24.378 2.022-46.771 6.37-67.747 17.263-31.171 16.192-56.587 41.609-72.779 72.781-10.896 20.975-15.243 43.371-17.267 67.746-1.949 23.467-1.948 52.292-1.948 87.215v9.045c0 23.565 19.103 42.667 42.667 42.667zM775.253 874.667c37.163 0 62.426-0.034 81.941-1.655 19.008-1.578 28.71-4.438 35.473-7.952 15.586-8.096 28.297-20.804 36.39-36.39 3.516-6.766 6.374-16.468 7.953-35.473 1.621-19.516 1.655-44.78 1.655-81.943v-7.253c0-23.564 19.102-42.667 42.667-42.667s42.667 19.102 42.667 42.667v9.046c0 34.921 0 63.747-1.95 87.213-2.022 24.378-6.37 46.771-17.263 67.747-16.192 31.171-41.609 56.587-72.781 72.779-20.975 10.896-43.371 15.243-67.746 17.267-23.467 1.949-52.292 1.948-87.215 1.948h-9.045c-23.565 0-42.667-19.103-42.667-42.667s19.102-42.667 42.667-42.667h7.253zM277.333 693.333c29.455 0 53.333-23.878 53.333-53.333v-85.333c0-29.457-23.878-53.333-53.333-53.333s-53.333 23.876-53.333 53.333v85.333c0 29.455 23.878 53.333 53.333 53.333zM565.333 618.667c0 23.564-19.102 42.667-42.667 42.667s-42.667-19.103-42.667-42.667v-192h-32c-23.564 0-42.667-19.102-42.667-42.667s19.102-42.667 42.667-42.667h32c47.13 0 85.333 38.204 85.333 85.333v192zM746.667 693.333c29.457 0 53.333-23.878 53.333-53.333v-85.333c0-29.457-23.876-53.333-53.333-53.333s-53.333 23.876-53.333 53.333v85.333c0 29.455 23.876 53.333 53.333 53.333zM379.505 253.747c-10.538 21.077-36.167 29.619-57.243 19.081s-29.62-36.164-19.081-57.242c30.111-60.224 111.119-108.919 208.828-108.919 97.711 0 178.718 48.695 208.828 108.919 10.539 21.077 1.997 46.703-19.081 57.242-21.073 10.539-46.703 1.997-57.242-19.081-12.557-25.114-59.55-61.747-132.506-61.747s-119.948 36.634-132.503 61.747z" />
<glyph unicode="&#xe911;" glyph-name="fingerprint-icon" d="M126.658 843.449c110.29 73.628 242.856 116.551 385.338 116.551s275.046-42.923 385.339-116.551c16.797-11.214 21.325-33.923 10.112-50.722-11.216-16.799-33.924-21.326-50.725-10.111-98.64 65.851-217.143 104.241-344.726 104.241s-246.086-38.39-344.727-104.241c-16.798-11.214-39.507-6.687-50.722 10.111s-6.687 39.507 10.111 50.722zM512 667.429c-77.901 0-150.735-22.179-212.401-60.584-17.145-10.677-22.388-33.232-11.71-50.377s33.232-22.385 50.377-11.71c50.4 31.389 109.891 49.529 173.734 49.529 181.778 0 329.143-147.361 329.143-329.143 0-20.198-16.373-36.571-36.571-36.571s-36.571 16.373-36.571 36.571c0 141.385-114.615 256-256 256s-256.001-114.615-256.001-256c0-76.862 11.469-134.502 33.987-183.42 22.396-48.651 54.508-85.903 90.734-123.034 14.106-14.457 37.259-14.742 51.716-0.636s14.742 37.259 0.636 51.716c-34.512 35.372-59.564 65.434-76.645 102.543-16.961 36.842-27.285 83.408-27.285 152.832 0 100.988 81.87 182.857 182.858 182.857s182.857-81.869 182.857-182.857c0-60.595 49.119-109.714 109.714-109.714 60.592 0 109.714 49.119 109.714 109.714 0 222.175-180.111 402.286-402.286 402.286zM254.097 469.669c12.562 15.817 9.923 38.821-5.893 51.383s-38.821 9.925-51.383-5.892c-54.518-68.645-87.108-155.575-87.108-250.017 0-77.535 7.968-106.335 22.030-154.372 5.674-19.387 25.988-30.501 45.373-24.825s30.499 25.988 24.824 45.374l-0.067 0.227c-12.654 43.227-19.018 64.965-19.018 133.595 0 77.338 26.627 148.352 71.241 204.526zM511.989 813.714c-216.177 0-403.078-125.047-492.444-306.589-8.92-18.121-1.462-40.042 16.66-48.962s40.043-1.463 48.963 16.658c77.531 157.501 239.568 265.75 426.821 265.75 79.744 0 154.8-19.604 220.72-54.224 17.883-9.391 39.991-2.508 49.382 15.374s2.509 39.991-15.375 49.382c-76.156 39.997-162.856 62.611-254.727 62.611zM884.25 668.074c-14.83 13.71-37.968 12.8-51.679-2.033-13.707-14.832-12.8-37.97 2.033-51.68 42.763-39.525 78.237-86.789 104.207-139.54 8.92-18.121 30.841-25.578 48.962-16.658s25.578 30.841 16.658 48.962c-29.974 60.895-70.894 115.395-120.181 160.949zM512 374.857c-35.591 0-64.040-18.022-82.469-42.536-18.048-24.005-27.246-54.813-27.246-85.464 0-90.756 57.271-155.941 126.237-194.256 68.59-38.104 154.346-53.38 226.363-43.088 19.994 2.856 33.887 21.38 31.031 41.373-2.856 19.997-21.38 33.891-41.373 31.035-55.987-7.998-125.659 4.155-180.498 34.622-54.459 30.256-88.616 74.785-88.616 130.315 0 16.739 5.153 31.649 12.566 41.509 7.029 9.351 15.152 13.349 24.005 13.349 12.628 0 17.821-3.939 20.714-7.033 3.972-4.25 7.19-11.154 9.143-20.136 4.29-19.734 23.771-32.256 43.505-27.966 19.738 4.29 32.26 23.768 27.97 43.505-3.474 15.971-10.829 37.047-27.187 54.546-17.437 18.651-42.331 30.226-74.145 30.226z" />
<glyph unicode="&#xe912;" glyph-name="gallery-icon" d="M725.333 533.333c70.694 0 128 57.308 128 128s-57.306 128-128 128c-70.694 0-128-57.308-128-128s57.306-128 128-128zM547.093 287.433l62.737 62.737c16.661 16.661 43.678 16.661 60.339 0l170.667-170.667c12.203-12.203 15.851-30.554 9.25-46.498-6.605-15.945-22.165-26.338-39.42-26.338h-597.334c-16.161 0-30.935 9.131-38.162 23.586s-5.668 31.753 4.029 44.681l192 256c8.058 10.743 20.704 17.067 34.133 17.067s26.074-6.323 34.134-17.067l107.627-143.501zM170.667 960c-94.257 0-170.667-76.41-170.667-170.667v-682.667c0-94.255 76.41-170.667 170.667-170.667h682.667c94.255 0 170.667 76.412 170.667 170.667v682.667c0 94.257-76.412 170.667-170.667 170.667h-682.667zM85.333 789.333c0 47.128 38.205 85.333 85.333 85.333h682.667c47.13 0 85.333-38.205 85.333-85.333v-682.667c0-47.13-38.204-85.333-85.333-85.333h-682.667c-47.128 0-85.333 38.204-85.333 85.333v682.667z" />
<glyph unicode="&#xe913;" glyph-name="google" d="M512 960c-282.752 0-512-229.248-512-512s229.248-512 512-512c282.752 0 512 229.248 512 512s-229.248 512-512 512zM387.541 273.792c-96.341 0-174.208 77.867-174.208 174.208s77.867 174.208 174.208 174.208c47.061 0 86.357-17.152 116.693-45.525l-47.232-45.568c-12.971 12.459-35.584 26.88-69.461 26.88-59.477 0-107.989-49.28-107.989-110.037s48.555-110.037 107.989-110.037c68.949 0 94.891 49.579 98.816 75.179h-98.816v59.733h164.48c1.536-8.704 2.731-17.408 2.731-28.885 0.043-99.499-66.688-170.155-167.211-170.155v0zM810.667 423.125h-74.667v-74.667h-49.792v74.667h-74.667v49.749h74.667v74.667h49.792v-74.667h74.667v-49.749z" />
<glyph unicode="&#xe914;" glyph-name="instagram" d="M295.544 955.597c-162.579 0-295.544-131.302-295.544-291.707v-431.76c0-160.443 132.966-291.707 295.544-291.707h432.931c162.578 0 295.525 131.264 295.525 291.707v431.76c0 160.405-132.947 291.707-295.525 291.707h-432.931zM509.242 722.094c-158.024 0-286.208-128.203-286.208-286.189 0-158.005 128.184-286.189 286.208-286.189 157.986 0 286.189 128.184 286.189 286.189 0 157.986-128.203 286.189-286.189 286.189zM509.242 625.432c104.619 0 189.526-84.89 189.526-189.526s-84.909-189.546-189.526-189.546c-104.656 0-189.546 84.907-189.546 189.546 0 104.637 84.89 189.526 189.546 189.526zM786.114 761.76c-25.645 0-46.451-20.806-46.451-46.451 0-25.664 20.806-46.47 46.451-46.47 25.664 0 46.47 20.806 46.47 46.47 0 25.645-20.806 46.451-46.47 46.451zM330.92 872.672h362.216c136.008 0 247.242-110.685 247.242-245.939v-364.029c0-135.251-111.232-245.918-247.242-245.918h-362.216c-136.008 0-247.259 110.667-247.259 245.92v364.030c0 135.251 111.251 245.936 247.259 245.936z" />
<glyph unicode="&#xe915;" glyph-name="like-filled-icon" d="M645.772 874.637c-6 9.001-15.835 14.712-26.629 15.461-10.789 0.749-21.318-3.547-28.509-11.633l-208.729-234.822c-51.121-57.512-79.36-131.784-79.36-208.731v-347.639c0-57.837 46.888-104.727 104.727-104.727h350.85c55.184 0 105.188 32.498 127.6 82.925l102.968 231.68c7.936 17.85 12.037 37.171 12.037 56.711v82.502c0 57.839-46.89 104.727-104.727 104.727h-232.993l39.363 137.775c14.066 49.236 5.804 102.166-22.598 144.772l-34.001 50.999zM128 541.091c-57.839 0-104.727-46.888-104.727-104.727v-349.091c0-57.837 46.888-104.727 104.727-104.727h34.909c38.56 0 69.818 31.26 69.818 69.818v418.909c0 38.559-31.259 69.818-69.818 69.818h-34.909z" />
<glyph unicode="&#xe916;" glyph-name="like-icon" d="M645.772 874.637c-6 9.001-15.835 14.712-26.629 15.461-10.789 0.749-21.318-3.547-28.509-11.633l-208.729-234.822c-51.121-57.512-79.36-131.784-79.36-208.731v-347.639c0-57.837 46.888-104.727 104.727-104.727h350.85c55.184 0 105.188 32.498 127.6 82.925l102.968 231.68c7.936 17.85 12.037 37.171 12.037 56.711v82.502c0 57.839-46.89 104.727-104.727 104.727h-232.993l39.363 137.775c14.066 49.236 5.804 102.166-22.598 144.772l-34.001 50.999zM434.088 597.258l178.683 201.018 8.909-13.366c17.045-25.564 22.002-57.321 13.559-86.863l-39.363-137.775c-12.744-44.601 20.745-88.999 67.133-88.999h232.993c19.279 0 34.909-15.629 34.909-34.909v-82.502c0-9.77-2.048-19.428-6.018-28.355l-102.968-231.68c-11.203-25.214-36.208-41.463-63.8-41.463h-350.85c-19.28 0-34.909 15.63-34.909 34.909v347.639c0 59.848 21.963 117.615 61.724 162.346zM128 541.091c-57.839 0-104.727-46.888-104.727-104.727v-349.091c0-57.837 46.888-104.727 104.727-104.727h34.909c38.56 0 69.818 31.26 69.818 69.818v418.909c0 38.559-31.259 69.818-69.818 69.818h-34.909zM93.091 436.364c0 19.28 15.629 34.909 34.909 34.909h34.909v-418.909h-34.909c-19.28 0-34.909 15.63-34.909 34.909v349.091z" />
<glyph unicode="&#xe917;" glyph-name="linkedin" d="M512 960c-282.752 0-512-229.248-512-512s229.248-512 512-512c282.752 0 512 229.248 512 512s-229.248 512-512 512zM426.667 277.333h-85.333v256h85.333v-256zM384 571.349c-25.899 0-46.933 21.163-46.933 47.317 0 26.112 20.992 47.317 46.933 47.317s46.933-21.205 46.933-47.317c0-26.155-21.035-47.317-46.933-47.317zM725.333 277.333h-85.248v122.069c0 80.256-85.419 73.472-85.419 0v-122.069h-85.333v256h85.333v-46.635c37.205 68.949 170.667 74.069 170.667-66.048v-143.317z" />
<glyph unicode="&#xe918;" glyph-name="location-icon" d="M512 740.571c-80.791 0-146.286-65.494-146.286-146.286 0-80.79 65.494-146.286 146.286-146.286 80.79 0 146.286 65.496 146.286 146.286s-65.496 146.286-146.286 146.286zM194.107 839.036c78.116 78.116 188.491 120.964 317.893 120.964s239.777-42.848 317.893-120.964 120.964-188.491 120.964-317.893c0-160.673-99.591-306.633-197.544-409.253-49.638-51.997-100.473-94.585-141.568-124.361-20.517-14.866-39.014-26.84-54.071-35.284-7.479-4.195-14.64-7.819-21.105-10.503-4.992-2.074-14.42-5.742-24.569-5.742s-19.577 3.668-24.569 5.742c-6.466 2.684-13.627 6.309-21.105 10.503-15.056 8.444-33.556 20.418-54.071 35.284-41.094 29.776-91.931 72.364-141.567 124.361-97.953 102.619-197.546 248.58-197.546 409.253 0 129.402 42.848 239.777 120.964 317.893zM245.827 787.316c-62.433-62.433-99.541-153.201-99.541-266.173 0-131.899 83.265-260.224 177.311-358.747 46.365-48.574 93.813-88.272 131.574-115.639 18.915-13.707 34.988-24.016 46.932-30.716 3.983-2.235 7.278-3.939 9.896-5.182 2.615 1.243 5.914 2.948 9.896 5.182 11.944 6.7 28.017 17.009 46.932 30.716 37.76 27.366 85.211 67.065 131.573 115.639 94.047 98.523 177.313 226.849 177.313 358.747 0 112.972-37.109 203.74-99.54 266.173-62.435 62.433-153.201 99.541-266.174 99.541s-203.74-37.108-266.173-99.541zM517.427 8.547c0.241-0.080 0.355-0.11 0.351-0.102l-0.15 0.048-0.201 0.055z" />
<glyph unicode="&#xe919;" glyph-name="logout_btn" d="M512 797.091h-349.091c-38.56 0-69.818-31.259-69.818-69.818v-558.545c0-38.558 31.259-69.818 69.818-69.818h349.091c38.558 0 69.818 31.26 69.818 69.818v139.636c0 19.279 15.63 34.909 34.909 34.909s34.909-15.63 34.909-34.909v-139.636c0-77.121-62.515-139.636-139.636-139.636h-349.091c-77.119 0-139.636 62.515-139.636 139.636v558.545c0 77.119 62.518 139.636 139.636 139.636h349.091c77.121 0 139.636-62.518 139.636-139.636v-139.636c0-19.28-15.63-34.909-34.909-34.909s-34.909 15.629-34.909 34.909v139.636c0 38.56-31.26 69.818-69.818 69.818zM881.538 413.091h-613.902c-19.28 0-34.909 15.629-34.909 34.909s15.629 34.909 34.909 34.909h613.902l-80.040 80.043c-13.633 13.633-13.633 35.736 0 49.369s35.733 13.633 49.366 0l139.636-139.636c13.633-13.633 13.633-35.736 0-49.369l-139.636-139.635c-13.633-13.633-35.733-13.633-49.366 0s-13.633 35.733 0 49.366l80.040 80.044z" />
<glyph unicode="&#xe91a;" glyph-name="message-icon" d="M246.519 732.444c-20.946 0-37.926-16.979-37.926-37.926s16.979-37.926 37.926-37.926h379.259c20.946 0 37.926 16.979 37.926 37.926s-16.979 37.926-37.926 37.926h-379.259zM246.519 542.815c-20.946 0-37.926-16.979-37.926-37.926s16.979-37.926 37.926-37.926h303.407c20.946 0 37.926 16.979 37.926 37.926s-16.979 37.926-37.926 37.926h-303.407zM18.963 808.296c0 83.784 67.92 151.704 151.704 151.704h530.963c83.784 0 151.704-67.92 151.704-151.704 83.784 0 151.704-67.92 151.704-151.704v-417.185c0-83.784-67.92-151.704-151.704-151.704v-113.778c0-14.579-8.357-27.868-21.496-34.183s-28.736-4.54-40.122 4.568l-179.24 143.392h-252.179c-36.305 0-69.7 12.796-95.805 34.076l-32.207-25.765c-11.385-9.108-26.981-10.883-40.121-4.568s-21.497 19.604-21.497 34.183v113.778c-83.784 0-151.704 67.92-151.704 151.704v417.185zM326.565 171.438c10.155-5.052 21.595-7.883 33.731-7.883h265.481c8.613 0 16.968-2.932 23.692-8.311l128.011-102.409v72.795c0 20.946 16.979 37.926 37.926 37.926h37.926c41.893 0 75.852 33.961 75.852 75.852v417.185c0 41.891-33.959 75.852-75.852 75.852v-341.333c0-83.784-67.92-151.704-151.704-151.704h-290.103l-84.962-67.969zM170.667 884.148c-41.892 0-75.852-33.96-75.852-75.852v-417.185c0-41.891 33.96-75.852 75.852-75.852h37.926c20.946 0 37.926-16.979 37.926-37.926v-72.795l128.011 102.409c6.724 5.38 15.081 8.311 23.692 8.311h303.407c41.891 0 75.852 33.961 75.852 75.852v417.185c0 41.892-33.961 75.852-75.852 75.852h-530.963z" />
<glyph unicode="&#xe91b;" glyph-name="people-icon" d="M0 813.714v-585.143c0-80.79 65.494-146.286 146.286-146.286h451.343c30.124-85.226 111.404-146.286 206.943-146.286 121.187 0 219.429 98.242 219.429 219.429 0 95.539-61.060 176.819-146.286 206.943v451.343c0 80.791-65.496 146.286-146.286 146.286h-585.143c-80.791 0-146.286-65.494-146.286-146.286zM804.571 813.714v-438.857c-44.899 0-86.649-13.484-121.421-36.626-9.008 11.736-18.728 22.554-29.155 32.457-29.839 28.347-64.23 48.029-101.873 60.442 7.53 8.397 14.405 17.353 20.582 26.602 30.468 45.597 49.009 104.905 49.009 162.677 0 58.655-19.207 107.636-53.515 142.055-34.158 34.271-80.461 51.25-129.342 51.25s-95.184-16.979-129.342-51.25c-34.307-34.42-53.515-83.4-53.515-142.055 0-57.772 18.544-117.079 49.009-162.677 6.178-9.249 13.054-18.205 20.581-26.602-37.642-12.409-72.034-32.095-101.874-60.442-50.943-48.388-85.015-118.612-101.795-211.101-28.416 10.035-48.777 37.131-48.777 68.985v585.143c0 40.396 32.747 73.143 73.143 73.143h585.143c40.397 0 73.143-32.747 73.143-73.143zM603.622 317.659c9.15-8.693 17.814-18.619 25.896-29.904-27.853-36.787-44.376-82.626-44.376-132.326h-389.57c15.287 77.034 43.301 128.779 78.516 162.231 40.742 38.7 95.651 57.198 164.768 57.198s124.025-18.498 164.765-57.198zM329.143 620.408c0 42.334 13.539 71.721 32.177 90.421 18.785 18.849 45.628 29.742 77.537 29.742s58.752-10.894 77.539-29.742c18.637-18.7 32.176-48.087 32.176-90.421 0-43.216-14.204-88.4-36.685-122.042-22.985-34.403-49.785-50.366-73.029-50.366s-50.044 15.963-73.029 50.366c-22.481 33.642-36.685 78.826-36.685 122.042zM841.143 265.143v-73.143h73.143c20.198 0 36.571-16.373 36.571-36.571s-16.373-36.571-36.571-36.571h-73.143v-73.143c0-20.198-16.373-36.571-36.571-36.571s-36.571 16.373-36.571 36.571v73.143h-73.143c-20.198 0-36.571 16.373-36.571 36.571s16.373 36.571 36.571 36.571h73.143v73.143c0 20.198 16.373 36.571 36.571 36.571s36.571-16.373 36.571-36.571z" />
<glyph unicode="&#xe91c;" glyph-name="profile" d="M23.273 448c0-140.916 59.641-267.906 155.056-357.101l0.598-0.554c87.283-81.32 204.368-131.072 333.073-131.072 128.717 0 245.807 49.757 333.093 131.091l0.559 0.517c95.427 89.195 155.075 216.194 155.075 357.12 0 269.917-218.81 488.727-488.727 488.727s-488.727-218.811-488.727-488.727zM930.909 448c0-96.335-32.517-185.074-87.175-255.842-18.665 76.977-52.257 136.481-100.049 178.921-34.946 31.037-75.948 51.582-121.144 63.567 6.246 7.21 11.995 14.815 17.222 22.64 29.082 43.527 46.783 100.139 46.783 155.285 0 55.99-18.334 102.744-51.084 135.599-32.605 32.714-76.8 48.921-123.462 48.921s-90.857-16.208-123.463-48.921c-32.747-32.855-51.082-79.609-51.082-135.599 0-55.147 17.701-111.758 46.781-155.285 5.228-7.824 10.979-15.43 17.222-22.64-45.196-11.985-86.197-32.531-121.144-63.567-47.794-42.44-81.386-101.944-100.048-178.921-54.658 70.768-87.176 159.507-87.176 255.842 0 231.357 187.552 418.909 418.909 418.909 231.359 0 418.909-187.552 418.909-418.909zM512 29.091c-104.109 0-199.348 37.976-272.618 100.836 13.166 91.453 44.884 151.291 87.292 188.947 45.117 40.066 107.148 59.308 185.326 59.308s140.209-19.242 185.325-59.308c42.408-37.655 74.128-97.494 87.291-188.947-73.267-62.86-168.509-100.836-272.617-100.836zM407.273 612.571c0 40.41 12.923 68.461 30.714 86.311 17.933 17.992 43.554 28.39 74.013 28.39s56.078-10.398 74.012-28.39c17.794-17.85 30.715-45.901 30.715-86.311 0-41.252-13.559-84.38-35.016-116.496-21.942-32.836-47.523-48.075-69.711-48.075s-47.771 15.239-69.712 48.075c-21.457 32.116-35.016 75.244-35.016 116.496z" />
<glyph unicode="&#xe91d;" glyph-name="remove-circle-icon" d="M512 896c-247.423 0-448-200.577-448-448s200.577-448 448-448c247.424 0 448 200.576 448 448s-200.576 448-448 448zM128 448c0 212.077 171.923 384 384 384s384-171.923 384-384c0-212.077-171.923-384-384-384s-384 171.923-384 384zM288 480h448c17.67 0 32-14.327 32-32s-14.33-32-32-32h-448c-17.673 0-32 14.327-32 32s14.327 32 32 32z" />
<glyph unicode="&#xe91e;" glyph-name="role" d="M548.571 448c0 20.198 16.374 36.571 36.571 36.571h256c20.195 0 36.571-16.374 36.571-36.571s-16.377-36.571-36.571-36.571h-256c-20.198 0-36.571 16.374-36.571 36.571zM585.143 338.286c-20.198 0-36.571-16.374-36.571-36.571s16.374-36.571 36.571-36.571h256c20.195 0 36.571 16.374 36.571 36.571s-16.377 36.571-36.571 36.571h-256zM329.143 795.429v-18.286h-182.857c-80.791 0-146.286-65.494-146.286-146.286v-438.857c0-80.794 65.494-146.286 146.286-146.286h731.429c80.794 0 146.286 65.492 146.286 146.286v438.857c0 80.791-65.492 146.286-146.286 146.286h-182.857v18.286c0 30.297-24.561 54.857-54.857 54.857h-256c-30.297 0-54.857-24.56-54.857-54.857zM694.857 685.714v18.286h182.857c40.397 0 73.143-32.748 73.143-73.143v-438.857c0-40.396-32.746-73.143-73.143-73.143h-330.888c-5.713 57.18-25.536 102.12-60.755 133.565-15.981 14.268-34.135 24.849-53.78 32.469 1.431 1.848 2.821 3.715 4.168 5.597 24.163 33.753 38.969 77.728 38.969 120.94 0 44.29-15.656 81.793-43.709 108.061-27.672 25.912-64.527 38.224-102.577 38.224s-74.905-12.312-102.577-38.224c-28.052-26.269-43.709-63.771-43.709-108.061 0-43.212 14.806-87.187 38.969-120.94 1.347-1.882 2.737-3.749 4.168-5.597-19.645-7.62-37.799-18.2-53.78-32.469-33.495-29.906-53.065-72.019-59.814-125.259-23.335 12.221-39.257 36.669-39.257 64.837v438.857c0 40.395 32.748 73.143 73.143 73.143h182.857v-18.286c0-30.297 24.561-54.857 54.857-54.857h256c30.297 0 54.857 24.561 54.857 54.857zM473.234 118.857h-288.181c5.169 39.749 18.956 63.898 35.877 79.006 22.404 20.003 57.506 30.708 108.214 30.708s85.81-10.705 108.214-30.709c16.921-15.108 30.708-39.257 35.877-79.005zM402.286 704v73.143h219.429v-73.143h-219.429zM376.986 333.064c-15.854-22.145-33.529-31.35-47.843-31.35s-31.989 9.204-47.843 31.35c-15.546 21.716-25.3 50.884-25.3 78.365 0 26.402 8.904 43.757 20.56 54.672 12.037 11.272 30.038 18.471 52.582 18.471s40.545-7.199 52.582-18.471c11.656-10.915 20.56-28.27 20.56-54.672 0-27.481-9.754-56.648-25.3-78.365z" />
<glyph unicode="&#xe91f;" glyph-name="search-icon" d="M426.667 960c-235.642 0-426.667-191.025-426.667-426.667 0-235.639 191.025-426.667 426.667-426.667 102.454 0 196.471 36.113 270.023 96.302l254.475-254.47c16.663-16.663 43.674-16.663 60.336 0s16.663 43.674 0 60.336l-254.47 254.475c60.188 73.552 96.302 167.569 96.302 270.023 0 235.642-191.027 426.667-426.667 426.667zM85.333 533.333c0 188.513 152.82 341.333 341.333 341.333s341.333-152.82 341.333-341.333c0-188.513-152.821-341.333-341.333-341.333s-341.333 152.821-341.333 341.333z" />
<glyph unicode="&#xe920;" glyph-name="send-icon" d="M1022.727 933c0.867-3.179 1.284-6.394 1.284-9.571 0-3.451-0.49-6.948-1.518-10.394-0.285-0.967-0.614-1.92-0.98-2.859l-365.667-950.734c-5.2-13.524-17.894-22.7-32.369-23.398-14.471-0.699-27.992 7.212-34.472 20.173l-146.286 292.571c-5.592 11.184-5.083 24.448 1.349 35.171l144.165 240.274-240.274-144.165c-10.722-6.433-23.988-6.941-35.171-1.349l-292.572 146.286c-12.96 6.48-20.872 20.001-20.174 34.472 0.699 14.475 9.876 27.169 23.401 32.373l950.725 365.662c0.94 0.366 1.898 0.694 2.867 0.982 3.445 1.026 6.941 1.517 10.394 1.516 3.452 0.001 6.949-0.49 10.394-1.516 1.126-0.334 2.235-0.722 3.321-1.162 4.656-1.881 8.715-4.618 12.072-7.958 3.412-3.387 6.206-7.503 8.115-12.231 0.080-0.195 0.157-0.39 0.23-0.586 0.453-1.178 0.845-2.365 1.167-3.558zM923.758 859.757l-796.671-306.413 200.455-100.228 347.848 208.711c5.837 3.662 12.606 5.601 19.467 5.607 9.56-0.009 18.937-3.768 25.867-10.714 6.945-6.933 10.701-16.305 10.712-25.863-0.007-6.862-1.946-13.629-5.61-19.466l-208.709-347.851 100.228-200.452 306.414 796.667z" />
<glyph unicode="&#xe921;" glyph-name="share-icon" d="M603.369 840.979c13.042 5.403 28.058 2.417 38.042-7.567l349.091-349.091c13.633-13.633 13.633-35.736 0-49.369l-349.091-349.090c-9.984-9.984-25-12.972-38.042-7.568-13.047 5.404-21.551 18.134-21.551 32.251v174.266c-166.534-2.807-360.158-29.584-496.62-196.371-9.792-11.967-26.29-16.067-40.545-10.077s-22.87 20.648-21.171 36.017c31.643 286.25 269.36 502.607 558.336 518.824v175.522c0 14.119 8.504 26.848 21.551 32.252zM651.636 724.45v-125.177c0-9.258-3.677-18.138-10.226-24.684s-15.425-10.225-24.683-10.225c-230.191 0-427.127-142.567-498.447-345.838 157.822 124.565 351.582 136.383 498.447 136.383 9.258 0 18.134-3.677 24.683-10.226 6.549-6.544 10.226-15.425 10.226-24.683v-125.175l264.811 264.812-264.811 264.813z" />
<glyph unicode="&#xe922;" glyph-name="star-empty-icon" d="M512 923.429c13.765 0 26.361-7.727 32.6-19.995l138.284-271.953 309.654-43.669c13.908-1.961 25.465-11.716 29.733-25.098 4.272-13.381 0.497-28.028-9.706-37.682l-223.408-211.361 52.688-298.163c2.417-13.659-3.109-27.513-14.263-35.763-11.151-8.251-26.013-9.483-38.371-3.174l-277.211 141.444-277.209-141.444c-12.358-6.309-27.219-5.076-38.373 3.174s-16.677 22.104-14.262 35.763l52.69 298.163-223.407 211.361c-10.204 9.655-13.977 24.302-9.708 37.682 4.269 13.382 15.825 23.137 29.735 25.098l309.653 43.669 138.282 271.953c6.239 12.268 18.838 19.995 32.6 19.995zM512 806.17l-114.315-224.82c-5.413-10.64-15.675-17.97-27.494-19.637l-253.334-35.725 182.564-172.723c8.931-8.452 13.019-20.824 10.879-32.929l-43.338-245.241 228.416 116.549c10.441 5.328 22.802 5.328 33.243 0l228.418-116.549-43.337 245.241c-2.139 12.105 1.949 24.477 10.88 32.929l182.565 172.723-253.338 35.725c-11.82 1.667-22.082 8.997-27.491 19.637l-114.319 224.82z" />
<glyph unicode="&#xe923;" glyph-name="threedots-icon" d="M232.727 448c0-57.839-46.888-104.727-104.727-104.727s-104.727 46.888-104.727 104.727c0 57.839 46.888 104.727 104.727 104.727s104.727-46.888 104.727-104.727zM512 343.273c57.837 0 104.727 46.888 104.727 104.727s-46.89 104.727-104.727 104.727c-57.839 0-104.727-46.888-104.727-104.727s46.888-104.727 104.727-104.727zM896 343.273c57.837 0 104.727 46.888 104.727 104.727s-46.89 104.727-104.727 104.727c-57.837 0-104.727-46.888-104.727-104.727s46.89-104.727 104.727-104.727z" />
<glyph unicode="&#xe924;" glyph-name="twitter" d="M512 960c-282.752 0-512-229.248-512-512s229.248-512 512-512c282.752 0 512 229.248 512 512s-229.248 512-512 512zM770.816 548.48c7.808-172.373-120.747-364.544-348.331-364.544-69.205 0-133.589 20.309-187.819 55.083 65.024-7.68 129.92 10.411 181.419 50.731-53.589 0.981-98.859 36.437-114.517 85.12 19.243-3.669 38.187-2.603 55.381 2.091-58.923 11.861-99.627 64.939-98.304 121.728 16.555-9.173 35.413-14.677 55.509-15.317-54.571 36.48-70.016 108.544-37.931 163.627 60.416-74.155 150.741-122.923 252.587-128.043-17.877 76.629 40.277 150.485 119.424 150.485 35.2 0 67.072-14.891 89.429-38.699 27.904 5.461 54.187 15.701 77.824 29.739-9.173-28.629-28.587-52.608-53.888-67.797 24.789 2.987 48.427 9.557 70.357 19.328-16.384-24.661-37.12-46.251-61.141-63.531v0z" />
<glyph unicode="&#xe925;" glyph-name="youtube" d="M465.835 365.525h30.123v-161.92h-30.123v17.877c-5.547-6.571-11.349-11.605-17.28-15.061-16.256-9.301-38.485-9.088-38.485 23.765v135.339h30.080v-124.117c0-6.528 1.579-10.923 8.021-10.923 5.888 0 14.037 7.509 17.707 12.117v122.923h-0.043zM493.227 543.915c8.533 0 13.269 6.827 13.269 16.085v79.104c0 9.515-4.181 16.213-13.824 16.213-8.875 0-13.184-6.869-13.184-16.213v-79.104c-0.043-8.96 4.992-16.085 13.739-16.085zM410.411 423.125h-104.064v-31.872h35.115v-187.648h33.92v187.648h35.029v31.872zM611.84 326.997v-89.813c0-20.053-7.509-35.584-27.52-35.584-11.051 0-20.224 4.011-28.629 14.507v-12.459h-30.379v219.52h30.379v-70.656c6.827 8.277 16 15.104 26.795 15.104 22.059-0.043 29.355-18.645 29.355-40.619v0zM580.821 325.163c0 5.461-1.024 9.6-3.2 12.459-3.669 4.821-10.411 5.333-15.659 2.645l-6.229-4.949v-100.907l7.125-5.717c4.907-2.475 12.075-2.645 15.403 1.664 1.707 2.304 2.603 6.016 2.603 11.179v83.627h-0.043zM1024 448c0-282.752-229.248-512-512-512s-512 229.248-512 512c0 282.752 229.248 512 512 512s512-229.248 512-512v0zM565.504 544.043c0-16.811 5.12-30.379 22.144-30.379 9.557 0 22.784 4.992 36.48 21.248v-18.773h31.616v170.069h-31.616v-129.067c-3.84-4.821-12.416-12.757-18.603-12.757-6.784 0-8.405 4.608-8.405 11.477v130.347h-31.616v-142.165zM446.933 641.92v-83.371c0-29.995 15.659-45.568 46.293-45.568 25.472 0 45.44 17.024 45.44 45.568v83.371c0 26.624-19.84 45.696-45.44 45.696-27.819 0-46.293-18.432-46.293-45.696v0zM329.131 746.667l42.368-137.003v-93.483h35.627v93.483l41.429 137.003h-36.181l-22.827-92.16-24.533 92.16h-35.883zM760.875 311.125c-0.555 111.147-8.704 153.685-78.848 158.464-64.768 4.437-275.413 4.395-340.096 0-70.059-4.779-78.293-47.104-78.848-158.464 0.555-111.189 8.704-153.685 78.848-158.507 64.683-4.395 275.328-4.395 340.096 0 70.101 4.821 78.293 47.104 78.848 158.507zM723.115 322.005v-41.216h-57.6v-30.549c0-12.16 1.024-22.656 13.141-22.656 12.715 0 13.44 8.533 13.44 22.656v11.264h31.019v-12.16c0-31.189-13.355-50.091-45.099-50.091-28.843 0-43.477 20.949-43.477 50.091v72.704c0 28.117 18.56 47.616 45.696 47.616 28.928-0.043 42.88-18.389 42.88-47.659v0zM692.139 322.304c0 10.923-2.304 18.987-13.184 18.987-11.136 0-13.397-7.851-13.397-18.987v-16.427h26.581v16.427z" />
</font>
</defs>
</svg>
