<svg width="14" height="14" viewBox="0 0 14 14" fill="none" xmlns="http://www.w3.org/2000/svg">
<path fill-rule="evenodd" clip-rule="evenodd" d="M0 2C0 0.89543 0.895431 0 2 0H10C11.1046 0 12 0.895431 12 2V8.17071C13.1652 8.58254 14 9.69378 14 11C14 12.6569 12.6569 14 11 14C9.69378 14 8.58254 13.1652 8.17071 12H2.09523L2.09016 12L2.08058 12H2C0.89543 12 0 11.1046 0 10V2ZM11 2V8C10.3861 8 9.81535 8.18437 9.33997 8.50076C9.21679 8.34029 9.08391 8.19238 8.94136 8.05698C8.53339 7.66945 8.06319 7.40033 7.54857 7.23064C7.65148 7.11587 7.74548 6.9934 7.82996 6.86697C8.24648 6.24357 8.5 5.43272 8.5 4.64286C8.5 3.84093 8.23738 3.17128 7.76835 2.70069C7.30134 2.23214 6.66832 2 6 2C5.33168 2 4.69866 2.23214 4.23165 2.70069C3.76262 3.17128 3.5 3.84093 3.5 4.64286C3.5 5.43272 3.75353 6.24357 4.17004 6.86697C4.25452 6.9934 4.34851 7.11587 4.45142 7.23063C3.93679 7.40032 3.46658 7.66944 3.0586 8.05698C2.36211 8.71857 1.89628 9.67867 1.66688 10.9432C1.27837 10.806 1 10.4355 1 10V2C1 1.44772 1.44772 1 2 1H10C10.5523 1 11 1.44772 11 2ZM8.25265 8.78201C8.37775 8.90085 8.4962 9.03656 8.60668 9.19085C8.22589 9.6938 8 10.3205 8 11H2.67385C2.88285 9.94681 3.26586 9.23935 3.74731 8.78201C4.30433 8.25291 5.05503 8 5.99998 8C6.94493 8 7.69563 8.25291 8.25265 8.78201ZM4.5 4.64286C4.5 4.06407 4.6851 3.6623 4.93992 3.40663C5.19677 3.14893 5.56375 3 6 3C6.43625 3 6.80323 3.14893 7.06008 3.40663C7.3149 3.6623 7.5 4.06407 7.5 4.64286C7.5 5.23371 7.30581 5.85143 6.99847 6.31142C6.68422 6.78176 6.31782 7 6 7C5.68218 7 5.31578 6.78176 5.00153 6.31142C4.69419 5.85143 4.5 5.23371 4.5 4.64286ZM11.5 9.5C11.5 9.22386 11.2761 9 11 9C10.7239 9 10.5 9.22386 10.5 9.5V10.5H9.5C9.22386 10.5 9 10.7239 9 11C9 11.2761 9.22386 11.5 9.5 11.5H10.5V12.5C10.5 12.7761 10.7239 13 11 13C11.2761 13 11.5 12.7761 11.5 12.5V11.5H12.5C12.7761 11.5 13 11.2761 13 11C13 10.7239 12.7761 10.5 12.5 10.5H11.5V9.5Z" fill="#006C84"/>
</svg>
