<svg width="16" height="22" viewBox="0 0 16 22" fill="none" xmlns="http://www.w3.org/2000/svg">
<path fill-rule="evenodd" clip-rule="evenodd" d="M0.5 3.5C0.5 1.84315 1.84315 0.5 3.5 0.5H12.5C14.1569 0.5 15.5 1.84315 15.5 3.5V20.75C15.5 21.0157 15.3594 21.2616 15.1303 21.3964C14.9013 21.5312 14.6181 21.5347 14.3858 21.4056L8 17.858L1.61423 21.4056C1.38193 21.5347 1.09869 21.5312 0.869654 21.3964C0.640621 21.2616 0.5 21.0157 0.5 20.75V3.5ZM3.5 2C2.67157 2 2 2.67157 2 3.5V19.4754L7.63577 16.3444C7.86228 16.2185 8.13772 16.2185 8.36423 16.3444L14 19.4754V3.5C14 2.67157 13.3284 2 12.5 2H3.5Z" fill="#282B33"/>
</svg>
