<svg width="28" height="22" viewBox="0 0 28 22" fill="none" xmlns="http://www.w3.org/2000/svg">
<path fill-rule="evenodd" clip-rule="evenodd" d="M14 6C10.6863 6 8 8.68629 8 12C8 15.3137 10.6863 18 14 18C17.3137 18 20 15.3137 20 12C20 8.68629 17.3137 6 14 6ZM10 12C10 9.79086 11.7909 8 14 8C16.2091 8 18 9.79086 18 12C18 14.2091 16.2091 16 14 16C11.7909 16 10 14.2091 10 12Z" fill="#006C84"/>
<path fill-rule="evenodd" clip-rule="evenodd" d="M11.4142 0C10.8838 0 10.3751 0.210713 10 0.585786L8.58579 2H4C1.79086 2 0 3.79086 0 6V18C0 20.2091 1.79086 22 4 22H24C26.2091 22 28 20.2091 28 18V6C28 3.79086 26.2091 2 24 2H19.4142L18 0.585786C17.6249 0.210714 17.1162 0 16.5858 0H11.4142ZM11.4142 2L16.5858 2L18.2929 3.70711C18.4804 3.89464 18.7348 4 19 4H24C25.1046 4 26 4.89543 26 6V18C26 19.1046 25.1046 20 24 20H4C2.89543 20 2 19.1046 2 18V6C2 4.89543 2.89543 4 4 4H9C9.26522 4 9.51957 3.89464 9.70711 3.70711L11.4142 2Z" fill="#006C84"/>
</svg>
