<svg width="20" height="22" viewBox="0 0 20 22" fill="none" xmlns="http://www.w3.org/2000/svg">
<path fill-rule="evenodd" clip-rule="evenodd" d="M0.25 10.1912C0.25 4.56731 4.63394 0.5 10 0.5C12.6546 0.5 15.0958 1.40254 16.8792 3.08823C18.6686 4.7797 19.75 7.2173 19.75 10.1912C19.75 13.095 18.3183 15.7224 16.451 17.6956C14.5891 19.6632 12.2075 21.0734 10.1471 21.4854C9.92676 21.5295 9.69827 21.4725 9.52451 21.33C9.35074 21.1876 9.25 20.9747 9.25 20.75V18.4551C7.0034 18.2645 4.8759 17.5852 3.24473 16.3491C1.41492 14.9624 0.25 12.9009 0.25 10.1912ZM10.75 17.75V19.7668C12.2525 19.2456 13.9507 18.1555 15.3615 16.6646C17.0567 14.8732 18.25 12.5962 18.25 10.1912C18.25 7.59888 17.3167 5.56589 15.8488 4.17831C14.3747 2.78496 12.3159 2 10 2C5.42493 2 1.75 5.43269 1.75 10.1912C1.75 12.4153 2.68204 14.0406 4.15071 15.1536C5.64435 16.2855 7.73189 16.9121 10.0289 17.0006C10.4315 17.0161 10.75 17.347 10.75 17.75Z" fill="#282B33"/>
<path fill-rule="evenodd" clip-rule="evenodd" d="M7 10.25C7 11.0784 6.32843 11.75 5.5 11.75C4.67157 11.75 4 11.0784 4 10.25C4 9.42157 4.67157 8.75 5.5 8.75C6.32843 8.75 7 9.42157 7 10.25ZM10 11.75C10.8284 11.75 11.5 11.0784 11.5 10.25C11.5 9.42157 10.8284 8.75 10 8.75C9.17157 8.75 8.5 9.42157 8.5 10.25C8.5 11.0784 9.17157 11.75 10 11.75ZM14.5 11.75C15.3284 11.75 16 11.0784 16 10.25C16 9.42157 15.3284 8.75 14.5 8.75C13.6716 8.75 13 9.42157 13 10.25C13 11.0784 13.6716 11.75 14.5 11.75Z" fill="#282B33"/>
</svg>
