<svg width="18" height="18" viewBox="0 0 18 18" fill="none" xmlns="http://www.w3.org/2000/svg">
<path fill-rule="evenodd" clip-rule="evenodd" d="M17.0303 2.03033C17.3232 1.73744 17.3232 1.26256 17.0303 0.96967C16.7374 0.676777 16.2626 0.676777 15.9697 0.96967L9.00002 7.93932L2.03036 0.96967C1.73747 0.676777 1.26259 0.676777 0.9697 0.96967C0.676806 1.26256 0.676806 1.73744 0.9697 2.03033L7.93935 8.99999L0.96967 15.9697C0.676777 16.2626 0.676777 16.7374 0.96967 17.0303C1.26256 17.3232 1.73744 17.3232 2.03033 17.0303L9.00002 10.0606L15.9697 17.0303C16.2626 17.3232 16.7375 17.3232 17.0304 17.0303C17.3233 16.7374 17.3233 16.2626 17.0304 15.9697L10.0607 8.99999L17.0303 2.03033Z" fill="#282B33"/>
</svg>
