<svg width="22" height="20" viewBox="0 0 22 20" fill="none" xmlns="http://www.w3.org/2000/svg">
<path fill-rule="evenodd" clip-rule="evenodd" d="M3.5 0C1.84315 0 0.5 1.34315 0.5 3V13.5C0.5 15.1569 1.84315 16.5 3.5 16.5H5V18.75C5 19.0383 5.16526 19.3011 5.42511 19.426C5.68496 19.5509 5.99339 19.5158 6.21852 19.3357L9.76309 16.5H18.5C20.1569 16.5 21.5 15.1569 21.5 13.5V3C21.5 1.34315 20.1569 0 18.5 0H3.5ZM2 3C2 2.17157 2.67157 1.5 3.5 1.5H18.5C19.3284 1.5 20 2.17157 20 3V13.5C20 14.3284 19.3284 15 18.5 15H9.5C9.3297 15 9.16446 15.058 9.03148 15.1643L6.5 17.1895V15.75C6.5 15.3358 6.16421 15 5.75 15H3.5C2.67157 15 2 14.3284 2 13.5V3ZM5.75 4.5C5.33579 4.5 5 4.83579 5 5.25C5 5.66421 5.33579 6 5.75 6H16.25C16.6642 6 17 5.66421 17 5.25C17 4.83579 16.6642 4.5 16.25 4.5H5.75ZM5.75 7.5C5.33579 7.5 5 7.83579 5 8.25C5 8.66421 5.33579 9 5.75 9H16.25C16.6642 9 17 8.66421 17 8.25C17 7.83579 16.6642 7.5 16.25 7.5H5.75ZM5 11.25C5 10.8358 5.33579 10.5 5.75 10.5H11.75C12.1642 10.5 12.5 10.8358 12.5 11.25C12.5 11.6642 12.1642 12 11.75 12H5.75C5.33579 12 5 11.6642 5 11.25Z" fill="#006C84"/>
</svg>
