<svg width="22" height="18" viewBox="0 0 22 18" fill="none" xmlns="http://www.w3.org/2000/svg">
<path fill-rule="evenodd" clip-rule="evenodd" d="M19.0303 0.96967C19.3232 1.26256 19.3232 1.73744 19.0303 2.03033L16.7935 4.2671L16.7874 4.27327L6.27326 14.7874L6.26702 14.7936L4.03027 17.0303C3.73738 17.3232 3.2625 17.3232 2.96961 17.0303C2.67672 16.7374 2.67672 16.2626 2.96961 15.9697L4.57169 14.3676C3.32077 13.4419 2.38169 12.3624 1.73067 11.4428C1.34008 10.891 1.04805 10.3896 0.850821 10.0016C0.752524 9.80821 0.674864 9.63729 0.61963 9.49791C0.592292 9.42893 0.567369 9.35995 0.548017 9.29515L0.547645 9.2939C0.535487 9.2532 0.5 9.13441 0.5 9.00001C0.5 8.89089 0.522779 8.79875 0.532083 8.76227C0.545119 8.71117 0.56134 8.66053 0.577671 8.614C0.610648 8.52005 0.655294 8.41121 0.708908 8.29285C0.816858 8.05453 0.97367 7.75009 1.17957 7.40381C1.59132 6.71132 2.21177 5.83063 3.05579 4.96179C4.74557 3.22231 7.36553 1.50001 11 1.50001C13.0149 1.50001 14.7238 2.03057 16.1354 2.80385L17.9696 0.96967C18.2625 0.676777 18.7374 0.676777 19.0303 0.96967ZM13.6074 5.33191L15.0228 3.91648C13.8894 3.36362 12.5541 3.00001 11 3.00001C7.88447 3.00001 5.62943 4.46521 4.13171 6.00697C3.38198 6.77876 2.83056 7.56213 2.46887 8.17042C2.28805 8.47453 2.15775 8.72967 2.07527 8.91176C2.0605 8.94437 2.04764 8.9738 2.03657 9.00001C2.07139 9.08241 2.12138 9.19085 2.18798 9.32188C2.35249 9.64551 2.60687 10.0844 2.95496 10.5761C3.5704 11.4455 4.4628 12.4576 5.6459 13.2934L7.33191 11.6074C6.80808 10.8718 6.5 9.97186 6.5 9C6.5 6.51472 8.51472 4.5 11 4.5C11.9719 4.5 12.8718 4.80808 13.6074 5.33191ZM1.98588 8.86786L1.9853 8.86594C1.98114 8.85202 1.98261 8.85397 1.98588 8.86786Z" fill="#3D424D"/>
<path d="M18.1976 5.24303C18.5045 4.96489 18.9788 4.98824 19.257 5.29518C19.9931 6.10754 20.5358 6.90842 20.8971 7.53468C21.0776 7.84767 21.2158 8.1222 21.3114 8.3382C21.3588 8.44539 21.3989 8.54517 21.4287 8.6325C21.4435 8.67579 21.4585 8.7237 21.4705 8.77268C21.4794 8.80878 21.5 8.89605 21.5 9.00001C21.5 9.10913 21.4772 9.20127 21.4679 9.23775C21.4549 9.28885 21.4387 9.33949 21.4223 9.38602C21.3894 9.47996 21.3447 9.58881 21.2911 9.70717C21.1831 9.94549 21.0263 10.2499 20.8204 10.5962C20.4087 11.2887 19.7882 12.1694 18.9442 13.0382C17.2544 14.7777 14.6345 16.5 11 16.5C10.2244 16.5 9.49236 16.4213 8.80378 16.2795C8.39808 16.196 8.13692 15.7994 8.22047 15.3937C8.30401 14.988 8.70062 14.7268 9.10632 14.8104C9.69587 14.9318 10.3265 15 11 15C14.1155 15 16.3706 13.5348 17.8683 11.993C18.618 11.2213 19.1694 10.4379 19.5311 9.82959C19.712 9.52548 19.8422 9.27035 19.9247 9.08826C19.9395 9.05565 19.9524 9.02622 19.9634 9.00001C19.9563 8.98314 19.9484 8.96487 19.9397 8.94522C19.8686 8.78447 19.7555 8.55759 19.5978 8.28416C19.2825 7.73759 18.8008 7.02563 18.1455 6.30241C17.8673 5.99547 17.8907 5.52117 18.1976 5.24303Z" fill="#3D424D"/>
</svg>
