<svg width="22" height="16" viewBox="0 0 22 16" fill="none" xmlns="http://www.w3.org/2000/svg">
<path fill-rule="evenodd" clip-rule="evenodd" d="M11 12.5C13.4853 12.5 15.5 10.4853 15.5 8C15.5 5.51472 13.4853 3.5 11 3.5C8.51472 3.5 6.5 5.51472 6.5 8C6.5 10.4853 8.51472 12.5 11 12.5ZM12.5 8C12.5 8.82843 11.8284 9.5 11 9.5C10.1716 9.5 9.5 8.82843 9.5 8C9.5 7.17157 10.1716 6.5 11 6.5C11.8284 6.5 12.5 7.17157 12.5 8Z" fill="#3D424D"/>
<path fill-rule="evenodd" clip-rule="evenodd" d="M3.05579 3.96179C4.74557 2.2223 7.36553 0.5 11 0.5C14.6345 0.5 17.2544 2.2223 18.9442 3.96179C19.7882 4.83063 20.4087 5.71131 20.8204 6.4038C21.0263 6.75008 21.1831 7.05452 21.2911 7.29284C21.3447 7.4112 21.3894 7.52004 21.4223 7.61399C21.4387 7.66052 21.4549 7.71116 21.4679 7.76226C21.4772 7.79874 21.5 7.89088 21.5 8C21.5 8.10912 21.4772 8.20126 21.4679 8.23774C21.4549 8.28884 21.4387 8.33948 21.4223 8.38601C21.3894 8.47996 21.3447 8.5888 21.2911 8.70716C21.1831 8.94548 21.0263 9.24992 20.8204 9.5962C20.4087 10.2887 19.7882 11.1694 18.9442 12.0382C17.2544 13.7777 14.6345 15.5 11 15.5C7.36553 15.5 4.74557 13.7777 3.05579 12.0382C2.21177 11.1694 1.59132 10.2887 1.17957 9.5962C0.97367 9.24992 0.816858 8.94548 0.708908 8.70716C0.655294 8.5888 0.610648 8.47996 0.577671 8.38601C0.56134 8.33948 0.545119 8.28884 0.532083 8.23774C0.522779 8.20126 0.5 8.10912 0.5 8C0.5 7.89088 0.522779 7.79874 0.532083 7.76226C0.545119 7.71116 0.56134 7.66052 0.577671 7.61399C0.610648 7.52004 0.655294 7.4112 0.708908 7.29284C0.816858 7.05452 0.97367 6.75008 1.17957 6.4038C1.59132 5.71131 2.21177 4.83063 3.05579 3.96179ZM2.03657 8C2.04764 8.02621 2.0605 8.05564 2.07527 8.08825C2.15775 8.27034 2.28805 8.52547 2.46887 8.82958C2.83056 9.43787 3.38198 10.2213 4.13171 10.993C5.62943 12.5348 7.88447 14 11 14C14.1155 14 16.3706 12.5348 17.8683 10.993C18.618 10.2213 19.1694 9.43787 19.5311 8.82958C19.712 8.52547 19.8422 8.27034 19.9247 8.08825C19.9395 8.05564 19.9524 8.02621 19.9634 8C19.9524 7.97379 19.9395 7.94436 19.9247 7.91175C19.8422 7.72966 19.712 7.47453 19.5311 7.17042C19.1694 6.56213 18.618 5.77875 17.8683 5.00696C16.3706 3.4652 14.1155 2 11 2C7.88447 2 5.62943 3.4652 4.13171 5.00696C3.38198 5.77875 2.83056 6.56213 2.46887 7.17042C2.28805 7.47453 2.15775 7.72966 2.07527 7.91175C2.0605 7.94436 2.04764 7.97379 2.03657 8Z" fill="#3D424D"/>
</svg>
