<svg width="24" height="24" viewBox="0 0 24 24" fill="none" xmlns="http://www.w3.org/2000/svg">
<path d="M6 4.26973e-07H5.78799C4.96948 -1.23797e-05 4.29393 -2.29478e-05 3.74393 0.0456518C3.17258 0.0931 2.64774 0.194963 2.1561 0.450348C1.42553 0.82985 0.82985 1.42553 0.450348 2.1561C0.194963 2.64774 0.0931 3.17258 0.0456518 3.74393C-2.29478e-05 4.29393 -1.23797e-05 4.96946 4.26973e-07 5.78798V6C4.26973e-07 6.55229 0.447717 7 1 7C1.55229 7 2 6.55229 2 6V5.83C2 4.95898 2.0008 4.36686 2.03879 3.90945C2.07578 3.46402 2.1428 3.23663 2.22517 3.07805C2.41493 2.71277 2.71277 2.41493 3.07805 2.22517C3.23663 2.1428 3.46402 2.07578 3.90945 2.03879C4.36686 2.0008 4.95898 2 5.83 2H6C6.55229 2 7 1.55229 7 1C7 0.447717 6.55229 4.26973e-07 6 4.26973e-07Z" fill="#006C84"/>
<path d="M24 18C24 17.4477 23.5523 17 23 17C22.4477 17 22 17.4477 22 18V18.17C22 19.041 21.9992 19.6331 21.9612 20.0905C21.9242 20.536 21.8572 20.7634 21.7748 20.9219C21.5851 21.2872 21.2872 21.5851 20.9219 21.7748C20.7634 21.8572 20.536 21.9242 20.0905 21.9612C19.6331 21.9992 19.041 22 18.17 22H18C17.4477 22 17 22.4477 17 23C17 23.5523 17.4477 24 18 24H18.212C19.0305 24 19.7061 24 20.2561 23.9543C20.8274 23.9069 21.3523 23.805 21.8439 23.5497C22.5745 23.1702 23.1702 22.5745 23.5497 21.8439C23.805 21.3523 23.9069 20.8274 23.9543 20.2561C24 19.7061 24 19.0306 24 18.2122V18Z" fill="#006C84"/>
<path d="M1 17C1.55229 17 2 17.4477 2 18V18.17C2 19.041 2.0008 19.6331 2.03879 20.0905C2.07578 20.536 2.1428 20.7634 2.22517 20.9219C2.41493 21.2872 2.71277 21.5851 3.07805 21.7748C3.23663 21.8572 3.46402 21.9242 3.90945 21.9612C4.36686 21.9992 4.95898 22 5.83 22H6C6.55229 22 7 22.4477 7 23C7 23.5523 6.55229 24 6 24H5.78798C4.96952 24 4.2939 24 3.74393 23.9543C3.17258 23.9069 2.64774 23.805 2.1561 23.5497C1.42553 23.1702 0.82985 22.5745 0.450348 21.8439C0.194963 21.3523 0.0931 20.8274 0.0456518 20.2561C-2.29478e-05 19.7061 -1.23797e-05 19.0305 4.26973e-07 18.212V18C4.26973e-07 17.4477 0.447717 17 1 17Z" fill="#006C84"/>
<path d="M18.17 2C19.041 2 19.6331 2.0008 20.0905 2.03879C20.536 2.07578 20.7634 2.1428 20.9219 2.22517C21.2872 2.41493 21.5851 2.71277 21.7748 3.07805C21.8572 3.23663 21.9242 3.46402 21.9612 3.90945C21.9992 4.36686 22 4.95898 22 5.83V6C22 6.55229 22.4477 7 23 7C23.5523 7 24 6.55229 24 6V5.78798C24 4.96951 24 4.2939 23.9543 3.74393C23.9069 3.17258 23.805 2.64774 23.5497 2.1561C23.1702 1.42553 22.5745 0.82985 21.8439 0.450348C21.3523 0.194963 20.8274 0.0931 20.2561 0.0456518C19.7061 -2.29478e-05 19.0305 -1.23797e-05 18.212 4.26973e-07H18C17.4477 4.26973e-07 17 0.447717 17 1C17 1.55229 17.4477 2 18 2H18.17Z" fill="#006C84"/>
<path d="M6.5 6.25C7.19036 6.25 7.75 6.80964 7.75 7.5V9.5C7.75 10.1904 7.19036 10.75 6.5 10.75C5.80964 10.75 5.25 10.1904 5.25 9.5V7.5C5.25 6.80964 5.80964 6.25 6.5 6.25Z" fill="#006C84"/>
<path d="M13.25 8C13.25 7.44772 12.8023 7 12.25 7C11.6977 7 11.25 7.44772 11.25 8V12.5H10.5C9.94771 12.5 9.5 12.9477 9.5 13.5C9.5 14.0523 9.94771 14.5 10.5 14.5H11.25C12.3546 14.5 13.25 13.6046 13.25 12.5V8Z" fill="#006C84"/>
<path d="M17.5 6.25C18.1904 6.25 18.75 6.80964 18.75 7.5V9.5C18.75 10.1904 18.1904 10.75 17.5 10.75C16.8096 10.75 16.25 10.1904 16.25 9.5V7.5C16.25 6.80964 16.8096 6.25 17.5 6.25Z" fill="#006C84"/>
<path d="M8.89465 16.5528C8.64766 16.0588 8.04698 15.8586 7.55301 16.1056C7.05903 16.3526 6.8588 16.9532 7.10579 17.4472C7.81151 18.8587 9.71013 20 12.0002 20C14.2903 20 16.1889 18.8587 16.8946 17.4472C17.1416 16.9532 16.9414 16.3526 16.4474 16.1056C15.9535 15.8586 15.3528 16.0588 15.1058 16.5528C14.8115 17.1414 13.7101 18 12.0002 18C10.2903 18 9.18893 17.1414 8.89465 16.5528Z" fill="#006C84"/>
</svg>
