<svg width="28" height="28" viewBox="0 0 28 28" fill="none" xmlns="http://www.w3.org/2000/svg">
<path d="M3.46331 3.18694C6.47906 1.17368 10.1039 0 13.9999 0C17.8959 0 21.5207 1.17368 24.5365 3.18694C24.9958 3.49358 25.1196 4.11453 24.813 4.57386C24.5063 5.0332 23.8854 5.15698 23.426 4.85034C20.7288 3.04972 17.4885 2 13.9999 2C10.5113 2 7.27099 3.04972 4.57376 4.85034C4.11443 5.15698 3.49348 5.0332 3.18683 4.57386C2.88019 4.11453 3.00397 3.49358 3.46331 3.18694Z" fill="#006C84"/>
<path d="M14 8C11.8699 8 9.87833 8.60646 8.19217 9.6566C7.72337 9.94856 7.58001 10.5653 7.87198 11.0341C8.16394 11.5029 8.78067 11.6462 9.24947 11.3543C10.6276 10.496 12.2543 10 14 10C18.9705 10 23 14.0294 23 19C23 19.5523 22.5523 20 22 20C21.4477 20 21 19.5523 21 19C21 15.134 17.866 12 14 12C10.134 12 6.99998 15.134 6.99998 19C6.99998 21.1017 7.31359 22.6778 7.9293 24.0154C8.54168 25.3457 9.41974 26.3643 10.4103 27.3796C10.796 27.7749 11.4291 27.7827 11.8244 27.397C12.2197 27.0113 12.2275 26.3782 11.8418 25.9829C10.8981 25.0157 10.2131 24.1937 9.74605 23.179C9.28228 22.1716 8.99998 20.8983 8.99998 19C8.99998 16.2386 11.2386 14 14 14C16.7614 14 19 16.2386 19 19C19 20.6569 20.3431 22 22 22C23.6568 22 25 20.6569 25 19C25 12.9249 20.0751 8 14 8Z" fill="#006C84"/>
<path d="M6.94797 13.4075C7.29145 12.975 7.21931 12.346 6.78683 12.0025C6.35435 11.659 5.72531 11.7311 5.38183 12.1636C3.89109 14.0406 2.99998 16.4176 2.99998 19C2.99998 21.1201 3.21785 21.9076 3.60236 23.2211C3.75752 23.7512 4.31298 24.0551 4.84302 23.8999C5.37306 23.7447 5.67697 23.1893 5.52181 22.6592L5.51999 22.653C5.17398 21.471 4.99998 20.8766 4.99998 19C4.99998 16.8853 5.72806 14.9435 6.94797 13.4075Z" fill="#006C84"/>
<path d="M13.9997 4C8.08862 4 2.97804 7.41926 0.534434 12.3833C0.290516 12.8788 0.494466 13.4782 0.989968 13.7221C1.48547 13.966 2.08489 13.7621 2.32881 13.2666C4.4488 8.95994 8.87951 6 13.9997 6C16.1802 6 18.2325 6.53604 20.035 7.48268C20.524 7.73947 21.1285 7.55126 21.3853 7.06231C21.6421 6.57335 21.4539 5.96881 20.9649 5.71202C18.8825 4.61836 16.5118 4 13.9997 4Z" fill="#006C84"/>
<path d="M24.1787 7.98235C23.7732 7.60747 23.1405 7.63236 22.7656 8.03793C22.3908 8.4435 22.4156 9.07618 22.8212 9.45105C23.9905 10.5318 24.9605 11.8242 25.6706 13.2666C25.9145 13.7621 26.5139 13.966 27.0094 13.7221C27.5049 13.4782 27.7088 12.8788 27.4649 12.3833C26.6453 10.7182 25.5264 9.22796 24.1787 7.98235Z" fill="#006C84"/>
<path d="M14 16C13.0268 16 12.2489 16.4928 11.745 17.1631C11.2515 17.8195 11 18.6619 11 19.5C11 21.9816 12.566 23.764 14.4518 24.8117C16.3273 25.8536 18.6722 26.2713 20.6414 25.9899C21.1881 25.9118 21.568 25.4053 21.4899 24.8586C21.4118 24.3118 20.9053 23.9319 20.3586 24.01C18.8277 24.2287 16.9226 23.8964 15.4231 23.0633C13.934 22.236 13 21.0184 13 19.5C13 19.0423 13.1409 18.6346 13.3436 18.365C13.5358 18.1093 13.7579 18 14 18C14.3453 18 14.4873 18.1077 14.5664 18.1923C14.675 18.3085 14.763 18.4973 14.8164 18.7429C14.9337 19.2825 15.4664 19.6249 16.006 19.5076C16.5457 19.3903 16.8881 18.8577 16.7708 18.318C16.6758 17.8813 16.4747 17.305 16.0274 16.8265C15.5506 16.3165 14.8699 16 14 16Z" fill="#006C84"/>
</svg>
