<svg width="24" height="24" viewBox="0 0 24 24" fill="none" xmlns="http://www.w3.org/2000/svg">
<path d="M17 10C18.6569 10 20 8.65685 20 7C20 5.34315 18.6569 4 17 4C15.3431 4 14 5.34315 14 7C14 8.65685 15.3431 10 17 10Z" fill="#006C84"/>
<path d="M12.8225 15.7633L14.2929 14.2929C14.6834 13.9024 15.3166 13.9024 15.7071 14.2929L19.7071 18.2929C19.9931 18.5789 20.0786 19.009 19.9239 19.3827C19.7691 19.7564 19.4044 20 19 20H4.99999C4.62122 20 4.27496 19.786 4.10557 19.4472C3.93618 19.1084 3.97273 18.703 4.19999 18.4L8.69999 12.4C8.88885 12.1482 9.18524 12 9.49999 12C9.81475 12 10.1111 12.1482 10.3 12.4L12.8225 15.7633Z" fill="#006C84"/>
<path fill-rule="evenodd" clip-rule="evenodd" d="M4 0C1.79086 0 0 1.79086 0 4V20C0 22.2091 1.79086 24 4 24H20C22.2091 24 24 22.2091 24 20V4C24 1.79086 22.2091 0 20 0H4ZM2 4C2 2.89543 2.89543 2 4 2H20C21.1046 2 22 2.89543 22 4V20C22 21.1046 21.1046 22 20 22H4C2.89543 22 2 21.1046 2 20V4Z" fill="#006C84"/>
</svg>
