<svg width="48" height="48" viewBox="0 0 48 48" fill="none" xmlns="http://www.w3.org/2000/svg">
<path d="M24 0C10.746 0 0 10.746 0 24C0 37.254 10.746 48 24 48C37.254 48 48 37.254 48 24C48 10.746 37.254 0 24 0ZM18.166 32.166C13.65 32.166 10 28.516 10 24C10 19.484 13.65 15.834 18.166 15.834C20.372 15.834 22.214 16.638 23.636 17.968L21.422 20.104C20.814 19.52 19.754 18.844 18.166 18.844C15.378 18.844 13.104 21.154 13.104 24.002C13.104 26.85 15.38 29.16 18.166 29.16C21.398 29.16 22.614 26.836 22.798 25.636H18.166V22.836H25.876C25.948 23.244 26.004 23.652 26.004 24.19C26.006 28.854 22.878 32.166 18.166 32.166V32.166ZM38 25.166H34.5V28.666H32.166V25.166H28.666V22.834H32.166V19.334H34.5V22.834H38V25.166Z" fill="#DC5044"/>
</svg>
