<svg width="22" height="18" viewBox="0 0 22 18" fill="none" xmlns="http://www.w3.org/2000/svg">
<path fill-rule="evenodd" clip-rule="evenodd" d="M10.75 0.75C9.74752 0.75 8.79799 1.09821 8.09747 1.80104C7.56812 2.33214 7.21405 3.03229 7.07117 3.85881C6.807 3.78624 6.531 3.75 6.25 3.75C5.43931 3.75 4.67209 4.05188 4.11101 4.65234C3.55106 5.2516 3.25 6.08945 3.25 7.07143C3.25 8.0387 3.54044 9.03413 4.02341 9.80516C4.06543 9.87225 4.10981 9.93893 4.15652 10.0047C3.46116 10.1957 2.82212 10.5019 2.26497 10.9495C1.18251 11.8191 0.510274 13.1408 0.268937 14.9019C0.0837948 16.253 1.22378 17.25 2.42958 17.25H19.0704C20.2762 17.25 21.4162 16.253 21.2311 14.9019C20.9897 13.1408 20.3175 11.8191 19.235 10.9495C18.6779 10.5019 18.0389 10.1957 17.3435 10.0048C17.3903 9.93894 17.4347 9.87226 17.4767 9.80516C17.9596 9.03413 18.2501 8.0387 18.2501 7.07143C18.2501 6.08945 17.949 5.2516 17.3891 4.65234C16.828 4.05188 16.0608 3.75 15.2501 3.75C14.9695 3.75 14.6935 3.78608 14.4288 3.85879C14.2859 3.03228 13.9319 2.33214 13.4025 1.80104C12.702 1.09821 11.7525 0.75 10.75 0.75ZM6.25098 9.75C6.87943 9.19204 7.60634 8.80818 8.40273 8.56853C8.25789 8.40434 8.12507 8.23006 8.00506 8.05045C7.51343 7.31462 7.17318 6.40469 7.0505 5.473C6.82972 5.32979 6.55926 5.25 6.25 5.25C5.81804 5.25 5.46027 5.4054 5.20701 5.67645C4.95262 5.94869 4.75 6.39655 4.75 7.07143C4.75 7.76101 4.96324 8.47987 5.29461 9.00891C5.64074 9.56149 6.00357 9.75 6.25 9.75L6.25098 9.75ZM3.20441 12.1189C3.67976 11.737 4.27771 11.4806 4.99954 11.3504C4.47725 12.3194 4.14574 13.5117 4.00964 14.9294C3.98163 15.2211 4.01338 15.4971 4.09298 15.75H2.42958C1.96438 15.75 1.71522 15.3963 1.75505 15.1056C1.95868 13.6196 2.49429 12.6894 3.20441 12.1189ZM6.20367 15.75C5.74945 15.75 5.4714 15.3995 5.50277 15.0728C5.69971 13.0214 6.32913 11.7195 7.18748 10.9255C8.04365 10.1336 9.23247 9.75 10.75 9.75C12.2675 9.75 13.4563 10.1336 14.3125 10.9255C15.1709 11.7195 15.8003 13.0214 15.9972 15.0728C16.0286 15.3995 15.7505 15.75 15.2963 15.75H6.20367ZM14.4495 5.47298C14.3268 6.40468 13.9866 7.31462 13.4949 8.05045C13.3749 8.23006 13.2421 8.40434 13.0973 8.56853C13.8937 8.80818 14.6206 9.19204 15.249 9.75L15.2501 9.75C15.4965 9.75 15.8593 9.56149 16.2055 9.00891C16.5368 8.47987 16.7501 7.76101 16.7501 7.07143C16.7501 6.39655 16.5475 5.94869 16.2931 5.67645C16.0398 5.4054 15.682 5.25 15.2501 5.25C14.9386 5.25 14.668 5.33123 14.4495 5.47298ZM19.0704 15.75H17.407C17.4866 15.4971 17.5184 15.2211 17.4904 14.9294C17.3543 13.5117 17.0228 12.3194 16.5005 11.3504C17.2223 11.4806 17.8202 11.737 18.2956 12.1189C19.0057 12.6894 19.5413 13.6196 19.7449 15.1056C19.7848 15.3963 19.5356 15.75 19.0704 15.75ZM8.5 4.71429C8.5 3.84611 8.77765 3.24345 9.15988 2.85995C9.54516 2.4734 10.0956 2.25 10.75 2.25C11.4044 2.25 11.9548 2.4734 12.3401 2.85995C12.7224 3.24345 13 3.84611 13 4.71429C13 5.60056 12.7087 6.52714 12.2477 7.21713C11.7763 7.92264 11.2267 8.25 10.75 8.25C10.2733 8.25 9.72367 7.92264 9.25229 7.21713C8.79128 6.52714 8.5 5.60056 8.5 4.71429Z" fill="#3D424D"/>
</svg>
