<svg width="14" height="12" viewBox="0 0 14 12" fill="none" xmlns="http://www.w3.org/2000/svg">
<path fill-rule="evenodd" clip-rule="evenodd" d="M7 0.5C6.33168 0.5 5.69866 0.732139 5.23165 1.20069C4.87875 1.55476 4.6427 2.02153 4.54744 2.57254C4.37133 2.52416 4.18733 2.5 4 2.5C3.45954 2.5 2.94806 2.70126 2.57401 3.10156C2.20071 3.50106 2 4.05963 2 4.71429C2 5.35913 2.19363 6.02275 2.5156 6.53678C2.54362 6.5815 2.57321 6.62595 2.60435 6.66982C2.14078 6.79713 1.71475 7.00127 1.34331 7.29966C0.621673 7.8794 0.173516 8.7605 0.0126249 9.93463C-0.110803 10.8354 0.649186 11.5 1.45305 11.5H12.5469C13.3508 11.5 14.1108 10.8354 13.9874 9.93463C13.8265 8.7605 13.3783 7.8794 12.6567 7.29966C12.2853 7.00128 11.8593 6.79714 11.3957 6.66984C11.4268 6.62596 11.4564 6.5815 11.4845 6.53678C11.8064 6.02275 12.0001 5.35913 12.0001 4.71429C12.0001 4.05963 11.7994 3.50106 11.4261 3.10156C11.052 2.70126 10.5405 2.5 10.0001 2.5C9.81299 2.5 9.62898 2.52405 9.45255 2.57252C9.3573 2.02152 9.12125 1.55476 8.76835 1.20069C8.30134 0.732139 7.66832 0.5 7 0.5ZM4.00065 6.5C4.41962 6.12803 4.90422 5.87212 5.43516 5.71235C5.33859 5.6029 5.25005 5.48671 5.17004 5.36697C4.84229 4.87642 4.61546 4.26979 4.53366 3.64866C4.38648 3.55319 4.20618 3.5 4 3.5C3.71203 3.5 3.47352 3.6036 3.30467 3.7843C3.13508 3.9658 3 4.26437 3 4.71429C3 5.17401 3.14216 5.65325 3.36308 6.00594C3.59383 6.37432 3.83571 6.5 4 6.5L4.00065 6.5ZM1.9696 8.07925C2.28651 7.82466 2.68514 7.65371 3.16636 7.56696C2.81816 8.21296 2.59716 9.00782 2.50642 9.95294C2.48775 10.1474 2.50892 10.3314 2.56198 10.5H1.45305C1.14292 10.5 0.976813 10.2642 1.00337 10.0704C1.13912 9.07972 1.49619 8.45957 1.9696 8.07925ZM3.96912 10.5C3.6663 10.5 3.48093 10.2664 3.50185 10.0485C3.63314 8.68091 4.05275 7.813 4.62498 7.28368C5.19577 6.7557 5.98831 6.5 7 6.5C8.01169 6.5 8.80423 6.7557 9.37502 7.28368C9.94725 7.813 10.3669 8.68091 10.4982 10.0485C10.5191 10.2664 10.3337 10.5 10.0309 10.5H3.96912ZM9.46634 3.64865C9.38455 4.26979 9.15772 4.87641 8.82996 5.36697C8.74995 5.48671 8.66141 5.6029 8.56484 5.71235C9.09577 5.87212 9.58038 6.12803 9.99935 6.5L10.0001 6.5C10.1643 6.5 10.4062 6.37432 10.637 6.00594C10.8579 5.65325 11.0001 5.17401 11.0001 4.71429C11.0001 4.26437 10.865 3.9658 10.6954 3.7843C10.5265 3.6036 10.288 3.5 10.0001 3.5C9.79241 3.5 9.612 3.55415 9.46634 3.64865ZM12.5469 10.5H11.438C11.4911 10.3314 11.5122 10.1474 11.4936 9.95294C11.4028 9.00782 11.1818 8.21296 10.8336 7.56696C11.3149 7.65371 11.7135 7.82466 12.0304 8.07925C12.5038 8.45957 12.8609 9.07972 12.9966 10.0704C13.0232 10.2642 12.8571 10.5 12.5469 10.5ZM5.5 3.14286C5.5 2.56407 5.6851 2.1623 5.93992 1.90663C6.19677 1.64893 6.56375 1.5 7 1.5C7.43625 1.5 7.80323 1.64893 8.06008 1.90663C8.3149 2.1623 8.5 2.56407 8.5 3.14286C8.5 3.73371 8.30581 4.35143 7.99847 4.81142C7.68422 5.28176 7.31782 5.5 7 5.5C6.68218 5.5 6.31578 5.28176 6.00153 4.81142C5.69419 4.35143 5.5 3.73371 5.5 3.14286Z" fill="#6C727E"/>
</svg>
