<svg width="22" height="20" viewBox="0 0 22 20" fill="none" xmlns="http://www.w3.org/2000/svg">
<path fill-rule="evenodd" clip-rule="evenodd" d="M10.5731 0.633356C10.8299 0.455548 11.1701 0.455548 11.4269 0.633356L21.1769 7.38336C21.5175 7.61913 21.6024 8.08634 21.3666 8.42691C21.1309 8.76747 20.6637 8.85242 20.3231 8.61664L20 8.39297V17C20 18.6569 18.6569 20 17 20H5.00001C3.34315 20 2.00001 18.6569 2.00001 17V8.39296L1.67691 8.61664C1.33635 8.85242 0.869137 8.76747 0.633363 8.42691C0.397588 8.08634 0.482536 7.61913 0.823099 7.38336L10.5731 0.633356ZM11 2.1622L18.5 7.3545V17C18.5 17.8284 17.8284 18.5 17 18.5H14.75V12.5C14.75 11.6716 14.0784 11 13.25 11H8.75001C7.92158 11 7.25001 11.6716 7.25001 12.5V18.5H5.00001C4.17158 18.5 3.50001 17.8284 3.50001 17V7.3545L11 2.1622ZM8.75001 18.5H13.25V12.5H8.75001V18.5Z" fill="#3D424D"/>
</svg>
