<svg width="48" height="48" viewBox="0 0 48 48" fill="none" xmlns="http://www.w3.org/2000/svg">
<path d="M29.658 12.604C28.182 12.536 27.738 12.524 24 12.524C20.262 12.524 19.82 12.538 18.344 12.604C14.546 12.778 12.778 14.576 12.604 18.344C12.538 19.82 12.522 20.262 12.522 24C12.522 27.738 12.538 28.18 12.604 29.658C12.778 33.416 14.538 35.224 18.344 35.398C19.818 35.464 20.262 35.48 24 35.48C27.74 35.48 28.182 35.466 29.658 35.398C33.456 35.226 35.222 33.422 35.398 29.658C35.464 28.182 35.478 27.738 35.478 24C35.478 20.262 35.464 19.82 35.398 18.344C35.222 14.578 33.452 12.778 29.658 12.604V12.604ZM24 31.19C20.03 31.19 16.81 27.972 16.81 24C16.81 20.03 20.03 16.812 24 16.812C27.97 16.812 31.19 20.03 31.19 24C31.19 27.97 27.97 31.19 24 31.19ZM31.474 18.208C30.546 18.208 29.794 17.456 29.794 16.528C29.794 15.6 30.546 14.848 31.474 14.848C32.402 14.848 33.154 15.6 33.154 16.528C33.154 17.454 32.402 18.208 31.474 18.208V18.208ZM28.666 24C28.666 26.578 26.576 28.666 24 28.666C21.424 28.666 19.334 26.578 19.334 24C19.334 21.422 21.424 19.334 24 19.334C26.576 19.334 28.666 21.422 28.666 24ZM24 0C10.746 0 0 10.746 0 24C0 37.254 10.746 48 24 48C37.254 48 48 37.254 48 24C48 10.746 37.254 0 24 0ZM37.916 29.772C37.686 34.862 34.852 37.682 29.774 37.916C28.28 37.984 27.802 38 24 38C20.198 38 19.722 37.984 18.228 37.916C13.14 37.682 10.318 34.858 10.084 29.772C10.016 28.28 10 27.802 10 24C10 20.198 10.016 19.722 10.084 18.228C10.318 13.14 13.142 10.318 18.228 10.086C19.722 10.016 20.198 10 24 10C27.802 10 28.28 10.016 29.774 10.086C34.864 10.32 37.688 13.15 37.916 18.228C37.984 19.722 38 20.198 38 24C38 27.802 37.984 28.28 37.916 29.772Z" fill="#E716A8"/>
<path d="M29.658 12.604C28.182 12.536 27.738 12.524 24 12.524C20.262 12.524 19.82 12.538 18.344 12.604C14.546 12.778 12.778 14.576 12.604 18.344C12.538 19.82 12.522 20.262 12.522 24C12.522 27.738 12.538 28.18 12.604 29.658C12.778 33.416 14.538 35.224 18.344 35.398C19.818 35.464 20.262 35.48 24 35.48C27.74 35.48 28.182 35.466 29.658 35.398C33.456 35.226 35.222 33.422 35.398 29.658C35.464 28.182 35.478 27.738 35.478 24C35.478 20.262 35.464 19.82 35.398 18.344C35.222 14.578 33.452 12.778 29.658 12.604V12.604ZM24 31.19C20.03 31.19 16.81 27.972 16.81 24C16.81 20.03 20.03 16.812 24 16.812C27.97 16.812 31.19 20.03 31.19 24C31.19 27.97 27.97 31.19 24 31.19ZM31.474 18.208C30.546 18.208 29.794 17.456 29.794 16.528C29.794 15.6 30.546 14.848 31.474 14.848C32.402 14.848 33.154 15.6 33.154 16.528C33.154 17.454 32.402 18.208 31.474 18.208V18.208ZM28.666 24C28.666 26.578 26.576 28.666 24 28.666C21.424 28.666 19.334 26.578 19.334 24C19.334 21.422 21.424 19.334 24 19.334C26.576 19.334 28.666 21.422 28.666 24ZM24 0C10.746 0 0 10.746 0 24C0 37.254 10.746 48 24 48C37.254 48 48 37.254 48 24C48 10.746 37.254 0 24 0ZM37.916 29.772C37.686 34.862 34.852 37.682 29.774 37.916C28.28 37.984 27.802 38 24 38C20.198 38 19.722 37.984 18.228 37.916C13.14 37.682 10.318 34.858 10.084 29.772C10.016 28.28 10 27.802 10 24C10 20.198 10.016 19.722 10.084 18.228C10.318 13.14 13.142 10.318 18.228 10.086C19.722 10.016 20.198 10 24 10C27.802 10 28.28 10.016 29.774 10.086C34.864 10.32 37.688 13.15 37.916 18.228C37.984 19.722 38 20.198 38 24C38 27.802 37.984 28.28 37.916 29.772Z" fill="url(#paint0_linear_325_1411)" fill-opacity="0.8"/>
<path d="M29.658 12.604C28.182 12.536 27.738 12.524 24 12.524C20.262 12.524 19.82 12.538 18.344 12.604C14.546 12.778 12.778 14.576 12.604 18.344C12.538 19.82 12.522 20.262 12.522 24C12.522 27.738 12.538 28.18 12.604 29.658C12.778 33.416 14.538 35.224 18.344 35.398C19.818 35.464 20.262 35.48 24 35.48C27.74 35.48 28.182 35.466 29.658 35.398C33.456 35.226 35.222 33.422 35.398 29.658C35.464 28.182 35.478 27.738 35.478 24C35.478 20.262 35.464 19.82 35.398 18.344C35.222 14.578 33.452 12.778 29.658 12.604V12.604ZM24 31.19C20.03 31.19 16.81 27.972 16.81 24C16.81 20.03 20.03 16.812 24 16.812C27.97 16.812 31.19 20.03 31.19 24C31.19 27.97 27.97 31.19 24 31.19ZM31.474 18.208C30.546 18.208 29.794 17.456 29.794 16.528C29.794 15.6 30.546 14.848 31.474 14.848C32.402 14.848 33.154 15.6 33.154 16.528C33.154 17.454 32.402 18.208 31.474 18.208V18.208ZM28.666 24C28.666 26.578 26.576 28.666 24 28.666C21.424 28.666 19.334 26.578 19.334 24C19.334 21.422 21.424 19.334 24 19.334C26.576 19.334 28.666 21.422 28.666 24ZM24 0C10.746 0 0 10.746 0 24C0 37.254 10.746 48 24 48C37.254 48 48 37.254 48 24C48 10.746 37.254 0 24 0ZM37.916 29.772C37.686 34.862 34.852 37.682 29.774 37.916C28.28 37.984 27.802 38 24 38C20.198 38 19.722 37.984 18.228 37.916C13.14 37.682 10.318 34.858 10.084 29.772C10.016 28.28 10 27.802 10 24C10 20.198 10.016 19.722 10.084 18.228C10.318 13.14 13.142 10.318 18.228 10.086C19.722 10.016 20.198 10 24 10C27.802 10 28.28 10.016 29.774 10.086C34.864 10.32 37.688 13.15 37.916 18.228C37.984 19.722 38 20.198 38 24C38 27.802 37.984 28.28 37.916 29.772Z" fill="url(#paint1_linear_325_1411)"/>
<path d="M29.658 12.604C28.182 12.536 27.738 12.524 24 12.524C20.262 12.524 19.82 12.538 18.344 12.604C14.546 12.778 12.778 14.576 12.604 18.344C12.538 19.82 12.522 20.262 12.522 24C12.522 27.738 12.538 28.18 12.604 29.658C12.778 33.416 14.538 35.224 18.344 35.398C19.818 35.464 20.262 35.48 24 35.48C27.74 35.48 28.182 35.466 29.658 35.398C33.456 35.226 35.222 33.422 35.398 29.658C35.464 28.182 35.478 27.738 35.478 24C35.478 20.262 35.464 19.82 35.398 18.344C35.222 14.578 33.452 12.778 29.658 12.604V12.604ZM24 31.19C20.03 31.19 16.81 27.972 16.81 24C16.81 20.03 20.03 16.812 24 16.812C27.97 16.812 31.19 20.03 31.19 24C31.19 27.97 27.97 31.19 24 31.19ZM31.474 18.208C30.546 18.208 29.794 17.456 29.794 16.528C29.794 15.6 30.546 14.848 31.474 14.848C32.402 14.848 33.154 15.6 33.154 16.528C33.154 17.454 32.402 18.208 31.474 18.208V18.208ZM28.666 24C28.666 26.578 26.576 28.666 24 28.666C21.424 28.666 19.334 26.578 19.334 24C19.334 21.422 21.424 19.334 24 19.334C26.576 19.334 28.666 21.422 28.666 24ZM24 0C10.746 0 0 10.746 0 24C0 37.254 10.746 48 24 48C37.254 48 48 37.254 48 24C48 10.746 37.254 0 24 0ZM37.916 29.772C37.686 34.862 34.852 37.682 29.774 37.916C28.28 37.984 27.802 38 24 38C20.198 38 19.722 37.984 18.228 37.916C13.14 37.682 10.318 34.858 10.084 29.772C10.016 28.28 10 27.802 10 24C10 20.198 10.016 19.722 10.084 18.228C10.318 13.14 13.142 10.318 18.228 10.086C19.722 10.016 20.198 10 24 10C27.802 10 28.28 10.016 29.774 10.086C34.864 10.32 37.688 13.15 37.916 18.228C37.984 19.722 38 20.198 38 24C38 27.802 37.984 28.28 37.916 29.772Z" fill="url(#paint2_linear_325_1411)" fill-opacity="0.8"/>
<path d="M29.658 12.604C28.182 12.536 27.738 12.524 24 12.524C20.262 12.524 19.82 12.538 18.344 12.604C14.546 12.778 12.778 14.576 12.604 18.344C12.538 19.82 12.522 20.262 12.522 24C12.522 27.738 12.538 28.18 12.604 29.658C12.778 33.416 14.538 35.224 18.344 35.398C19.818 35.464 20.262 35.48 24 35.48C27.74 35.48 28.182 35.466 29.658 35.398C33.456 35.226 35.222 33.422 35.398 29.658C35.464 28.182 35.478 27.738 35.478 24C35.478 20.262 35.464 19.82 35.398 18.344C35.222 14.578 33.452 12.778 29.658 12.604V12.604ZM24 31.19C20.03 31.19 16.81 27.972 16.81 24C16.81 20.03 20.03 16.812 24 16.812C27.97 16.812 31.19 20.03 31.19 24C31.19 27.97 27.97 31.19 24 31.19ZM31.474 18.208C30.546 18.208 29.794 17.456 29.794 16.528C29.794 15.6 30.546 14.848 31.474 14.848C32.402 14.848 33.154 15.6 33.154 16.528C33.154 17.454 32.402 18.208 31.474 18.208V18.208ZM28.666 24C28.666 26.578 26.576 28.666 24 28.666C21.424 28.666 19.334 26.578 19.334 24C19.334 21.422 21.424 19.334 24 19.334C26.576 19.334 28.666 21.422 28.666 24ZM24 0C10.746 0 0 10.746 0 24C0 37.254 10.746 48 24 48C37.254 48 48 37.254 48 24C48 10.746 37.254 0 24 0ZM37.916 29.772C37.686 34.862 34.852 37.682 29.774 37.916C28.28 37.984 27.802 38 24 38C20.198 38 19.722 37.984 18.228 37.916C13.14 37.682 10.318 34.858 10.084 29.772C10.016 28.28 10 27.802 10 24C10 20.198 10.016 19.722 10.084 18.228C10.318 13.14 13.142 10.318 18.228 10.086C19.722 10.016 20.198 10 24 10C27.802 10 28.28 10.016 29.774 10.086C34.864 10.32 37.688 13.15 37.916 18.228C37.984 19.722 38 20.198 38 24C38 27.802 37.984 28.28 37.916 29.772Z" fill="url(#paint3_linear_325_1411)"/>
<defs>
<linearGradient id="paint0_linear_325_1411" x1="8" y1="4" x2="16.5" y2="19.5" gradientUnits="userSpaceOnUse">
<stop stop-color="#5B15FA"/>
<stop offset="1" stop-color="#B612E3"/>
</linearGradient>
<linearGradient id="paint1_linear_325_1411" x1="35.5" y1="6" x2="16" y2="46.5" gradientUnits="userSpaceOnUse">
<stop stop-color="#AA0EEB" stop-opacity="0.6"/>
<stop offset="1" stop-color="#FDA219"/>
</linearGradient>
<linearGradient id="paint2_linear_325_1411" x1="10.5" y1="5" x2="44" y2="35" gradientUnits="userSpaceOnUse">
<stop stop-color="#5714F9"/>
<stop offset="1" stop-color="#F0275D"/>
</linearGradient>
<linearGradient id="paint3_linear_325_1411" x1="24" y1="6.85453e-07" x2="12.5" y2="43.5" gradientUnits="userSpaceOnUse">
<stop stop-color="#8B0EF6" stop-opacity="0.4"/>
<stop offset="1" stop-color="#FC9521"/>
</linearGradient>
</defs>
</svg>
