<svg width="21" height="20" viewBox="0 0 21 20" fill="none" xmlns="http://www.w3.org/2000/svg">
<path fill-rule="evenodd" clip-rule="evenodd" d="M5.4932 10C5.4932 7.23485 7.73478 4.99326 10.5 4.99326C13.2651 4.99326 15.5067 7.23485 15.5067 10C15.5067 12.7652 13.2651 15.0068 10.5 15.0068C7.73478 15.0068 5.4932 12.7652 5.4932 10ZM7.24995 10C7.24995 11.795 8.70502 13.25 10.5 13.25C12.2949 13.25 13.75 11.795 13.75 10C13.75 8.20508 12.2949 6.75002 10.5 6.75002C8.70502 6.75002 7.24995 8.20508 7.24995 10Z" fill="#006C84"/>
<path d="M15.7045 5.96544C16.3507 5.96544 16.8745 5.44163 16.8745 4.79545C16.8745 4.14927 16.3507 3.62543 15.7045 3.62543C15.0584 3.62543 14.5345 4.14927 14.5345 4.79545C14.5345 5.44163 15.0584 5.96544 15.7045 5.96544Z" fill="#006C84"/>
<path fill-rule="evenodd" clip-rule="evenodd" d="M6.48009 0.308673C7.52003 0.261224 7.85206 0.25 10.5 0.25C13.1479 0.25 13.48 0.261224 14.5199 0.308673C15.5577 0.356007 16.2664 0.520841 16.8866 0.761882C17.5278 1.01101 18.0715 1.3444 18.6136 1.88643C19.1556 2.4285 19.489 2.97223 19.7382 3.61338C19.9792 4.23355 20.144 4.94231 20.1913 5.98009C20.2388 7.02003 20.25 7.35206 20.25 10C20.25 12.6479 20.2388 12.98 20.1913 14.0199C20.144 15.0577 19.9792 15.7664 19.7382 16.3866C19.489 17.0278 19.1556 17.5715 18.6136 18.1136C18.0715 18.6556 17.5278 18.989 16.8866 19.2382C16.2664 19.4792 15.5577 19.644 14.5199 19.6913C13.48 19.7388 13.1479 19.75 10.5 19.75C7.85206 19.75 7.52003 19.7388 6.48009 19.6913C5.44231 19.644 4.73355 19.4792 4.11338 19.2382C3.47223 18.989 2.9285 18.6556 2.38643 18.1136C1.8444 17.5715 1.51101 17.0278 1.26188 16.3866C1.02084 15.7664 0.856007 15.0577 0.808673 14.0199C0.761224 12.98 0.75 12.6479 0.75 10C0.75 7.35206 0.761224 7.02003 0.808673 5.98009C0.856007 4.94231 1.02084 4.23355 1.26188 3.61338C1.51101 2.97223 1.8444 2.4285 2.38643 1.88643C2.9285 1.3444 3.47223 1.01101 4.11338 0.761882C4.73355 0.520841 5.44231 0.356007 6.48009 0.308673ZM14.4398 2.06361C13.4117 2.0167 13.1034 2.00675 10.5 2.00675C7.89664 2.00675 7.58826 2.0167 6.56016 2.06361C5.60955 2.10696 5.09329 2.26579 4.74973 2.39932C4.29462 2.57619 3.96983 2.78746 3.62867 3.12867C3.28746 3.46983 3.07619 3.79462 2.89932 4.24973C2.76579 4.59329 2.60696 5.10955 2.56361 6.06016C2.5167 7.08826 2.50675 7.39664 2.50675 10C2.50675 12.6034 2.5167 12.9117 2.56361 13.9398C2.60696 14.8905 2.76579 15.4067 2.89932 15.7503C3.07619 16.2054 3.2875 16.5302 3.62867 16.8713C3.96983 17.2125 4.29462 17.4238 4.74973 17.6007C5.09329 17.7342 5.60955 17.893 6.56016 17.9364C7.58815 17.9833 7.89645 17.9932 10.5 17.9932C13.1035 17.9932 13.4119 17.9833 14.4398 17.9364C15.3905 17.893 15.9067 17.7342 16.2503 17.6007C16.7054 17.4238 17.0302 17.2125 17.3713 16.8713C17.7125 16.5302 17.9238 16.2054 18.1007 15.7503C18.2342 15.4067 18.393 14.8905 18.4364 13.9398C18.4833 12.9117 18.4932 12.6034 18.4932 10C18.4932 7.39664 18.4833 7.08826 18.4364 6.06016C18.393 5.10955 18.2342 4.59329 18.1007 4.24973C17.9238 3.79462 17.7125 3.46983 17.3713 3.12867C17.0302 2.78746 16.7054 2.57619 16.2503 2.39932C15.9067 2.26579 15.3905 2.10696 14.4398 2.06361Z" fill="#006C84"/>
</svg>
