<svg width="13" height="14" viewBox="0 0 13 14" fill="none" xmlns="http://www.w3.org/2000/svg">
<path fill-rule="evenodd" clip-rule="evenodd" d="M8.88259 1.70449C8.34912 1.56155 7.80079 1.87813 7.65784 2.4116C7.5149 2.94507 7.83148 3.4934 8.36495 3.63634C8.89842 3.77929 9.44675 3.4627 9.58969 2.92924C9.73264 2.39577 9.41605 1.84743 8.88259 1.70449ZM6.7281 2.03268C7.06137 1.03891 8.11515 0.463581 9.14141 0.738567C10.1677 1.01357 10.7927 2.03884 10.5843 3.06617C11.9459 4.06732 12.8295 5.68056 12.8295 7.50018C12.8295 8.28763 12.664 9.03642 12.3659 9.71369C13.0592 10.4992 13.0303 11.6989 12.2793 12.4499C11.5283 13.201 10.3286 13.2298 9.54308 12.5366C8.8658 12.8347 8.11698 13.0002 7.3295 13.0002C5.5098 13.0002 3.8965 12.1165 2.89537 10.7548C1.86832 10.9626 0.843571 10.3378 0.568645 9.31171C0.293727 8.28571 0.868703 7.2322 1.86202 6.89865C2.14016 4.34158 4.17101 2.31077 6.7281 2.03268ZM6.6596 3.0497C4.71077 3.34057 3.17018 4.88101 2.8791 6.82978C3.60689 6.9706 4.22759 7.51226 4.43235 8.27644C4.63707 9.04047 4.3705 9.81975 3.81085 10.3056C4.6354 11.3384 5.90517 12.0002 7.3295 12.0002C7.91013 12.0002 8.46508 11.8902 8.97465 11.69C8.73273 10.9893 8.89147 10.1809 9.45088 9.62151C10.0103 9.06211 10.8186 8.90336 11.5193 9.14527C11.7195 8.63571 11.8295 8.08079 11.8295 7.50018C11.8295 6.07577 11.1677 4.80593 10.1348 3.98139C9.64888 4.54062 8.86988 4.80692 8.10613 4.60227C7.34219 4.39757 6.80063 3.7772 6.6596 3.0497ZM2.24168 7.82815C2.77514 7.68521 3.32348 8.00179 3.46642 8.53526C3.60936 9.06872 3.29278 9.61706 2.75932 9.76C2.22585 9.90294 1.67751 9.58636 1.53457 9.05289C1.39163 8.51943 1.70821 7.97109 2.24168 7.82815ZM10.158 11.7428C9.76746 11.3523 9.76746 10.7191 10.158 10.3286C10.5485 9.93809 11.1817 9.93809 11.5722 10.3286C11.9627 10.7191 11.9627 11.3523 11.5722 11.7428C11.1817 12.1334 10.5485 12.1334 10.158 11.7428Z" fill="#006C84"/>
</svg>
