<svg width="22" height="20" viewBox="0 0 22 20" fill="none" xmlns="http://www.w3.org/2000/svg">
<path d="M13.874 0.833978C13.7451 0.64059 13.5338 0.517903 13.3019 0.501804C13.0701 0.485706 12.8439 0.578015 12.6894 0.75173L8.20499 5.79674C7.10668 7.03234 6.5 8.62803 6.5 10.2812V17.75C6.5 18.9926 7.50736 20 8.75 20H16.2878C17.4734 20 18.5477 19.3018 19.0292 18.2184L21.2414 13.2409C21.4119 12.8574 21.5 12.4423 21.5 12.0225V10.25C21.5 9.00736 20.4926 8 19.25 8H14.2443L15.09 5.03999C15.3922 3.98218 15.2147 2.84502 14.6045 1.92966L13.874 0.833978Z" fill="#006C84"/>
<path d="M2.75 8C1.50736 8 0.5 9.00736 0.5 10.25V17.75C0.5 18.9926 1.50736 20 2.75 20H3.5C4.32843 20 5 19.3284 5 18.5V9.5C5 8.67158 4.32843 8 3.5 8H2.75Z" fill="#006C84"/>
</svg>
