<svg width="22" height="20" viewBox="0 0 22 20" fill="none" xmlns="http://www.w3.org/2000/svg">
<path fill-rule="evenodd" clip-rule="evenodd" d="M13.874 0.833978C13.7451 0.64059 13.5338 0.517903 13.3019 0.501804C13.0701 0.485706 12.8439 0.578015 12.6894 0.75173L8.20499 5.79674C7.10668 7.03234 6.5 8.62803 6.5 10.2812V17.75C6.5 18.9926 7.50736 20 8.75 20H16.2878C17.4734 20 18.5477 19.3018 19.0292 18.2184L21.2414 13.2409C21.4119 12.8574 21.5 12.4423 21.5 12.0225V10.25C21.5 9.00736 20.4926 8 19.25 8H14.2443L15.09 5.03999C15.3922 3.98218 15.2147 2.84502 14.6045 1.92966L13.874 0.833978ZM9.3261 6.79329L13.165 2.47455L13.3564 2.76171C13.7226 3.31093 13.8291 3.99322 13.6477 4.62791L12.802 7.58792C12.5282 8.54615 13.2477 9.5 14.2443 9.5H19.25C19.6642 9.5 20 9.83579 20 10.25V12.0225C20 12.2324 19.956 12.4399 19.8707 12.6317L17.6585 17.6092C17.4178 18.1509 16.8806 18.5 16.2878 18.5H8.75C8.33579 18.5 8 18.1642 8 17.75V10.2812C8 8.9954 8.47186 7.75431 9.3261 6.79329ZM2.75 8C1.50736 8 0.5 9.00736 0.5 10.25V17.75C0.5 18.9926 1.50736 20 2.75 20H3.5C4.32843 20 5 19.3284 5 18.5V9.5C5 8.67158 4.32843 8 3.5 8H2.75ZM2 10.25C2 9.83579 2.33579 9.5 2.75 9.5H3.5V18.5H2.75C2.33579 18.5 2 18.1642 2 17.75V10.25Z" fill="#006C84"/>
</svg>
