<svg width="19" height="18" viewBox="0 0 19 18" fill="none" xmlns="http://www.w3.org/2000/svg">
<path d="M17.7385 0H1.26154C0.846154 0 0.5 0.346154 0.5 0.761539V17.2385C0.5 17.6538 0.846154 18 1.26154 18H17.7385C18.1538 18 18.5 17.6538 18.5 17.2385V0.761539C18.5 0.346154 18.1538 0 17.7385 0ZM5.83077 15.3692H3.13077V6.78462H5.76154V15.3692H5.83077ZM4.51538 5.60769C3.68462 5.60769 2.99231 4.91538 2.99231 4.08462C2.99231 3.25385 3.68462 2.56154 4.51538 2.56154C5.34615 2.56154 6.03846 3.18462 6.03846 4.01538C6.03846 4.84615 5.34615 5.60769 4.51538 5.60769ZM15.8692 15.3692H13.2385V11.2154C13.2385 10.1769 13.2385 8.93077 11.8538 8.93077C10.4692 8.93077 10.1923 9.96923 10.1923 11.0769V15.3H7.56154V6.78462H10.1231V7.96154H10.1923C10.5385 7.26923 11.4385 6.57692 12.6846 6.57692C15.3846 6.57692 15.8692 8.30769 15.8692 10.6615V15.3692Z" fill="#006C84"/>
</svg>
