<svg width="24" height="28" viewBox="0 0 24 28" fill="none" xmlns="http://www.w3.org/2000/svg">
<path d="M12 6C9.79086 6 8 7.79086 8 10C8 12.2091 9.79086 14 12 14C14.2091 14 16 12.2091 16 10C16 7.79086 14.2091 6 12 6Z" fill="#006C84"/>
<path fill-rule="evenodd" clip-rule="evenodd" d="M3.30761 3.30761C5.4436 1.17162 8.46167 0 12 0C15.5383 0 18.5564 1.17162 20.6924 3.30761C22.8284 5.4436 24 8.46167 24 12C24 16.3934 21.2768 20.3845 18.5984 23.1905C17.2411 24.6123 15.8511 25.7768 14.7274 26.591C14.1664 26.9975 13.6606 27.3249 13.2489 27.5558C13.0444 27.6705 12.8486 27.7696 12.6718 27.843C12.5353 27.8997 12.2775 28 12 28C11.7225 28 11.4647 27.8997 11.3282 27.843C11.1514 27.7696 10.9556 27.6705 10.7511 27.5558C10.3394 27.3249 9.83356 26.9975 9.2726 26.591C8.14894 25.7768 6.75886 24.6123 5.40164 23.1905C2.72323 20.3845 0 16.3934 0 12C0 8.46167 1.17162 5.4436 3.30761 3.30761ZM4.72183 4.72183C3.01467 6.42898 2 8.91091 2 12C2 15.6066 4.27677 19.1155 6.84836 21.8095C8.11614 23.1377 9.41356 24.2232 10.4461 24.9715C10.9633 25.3463 11.4028 25.6282 11.7294 25.8114C11.8383 25.8725 11.9284 25.9191 12 25.9531C12.0715 25.9191 12.1617 25.8725 12.2706 25.8114C12.5972 25.6282 13.0367 25.3463 13.5539 24.9715C14.5864 24.2232 15.8839 23.1377 17.1516 21.8095C19.7232 19.1155 22 15.6066 22 12C22 8.91091 20.9853 6.42898 19.2782 4.72183C17.571 3.01467 15.0891 2 12 2C8.91091 2 6.42898 3.01467 4.72183 4.72183ZM12.1484 26.0163L12.1539 26.0178L12.158 26.0191C12.1581 26.0193 12.155 26.0185 12.1484 26.0163Z" fill="#006C84"/>
</svg>
