<svg width="22" height="18" viewBox="0 0 22 18" fill="none" xmlns="http://www.w3.org/2000/svg">
<path fill-rule="evenodd" clip-rule="evenodd" d="M11 1.5C11.8284 1.5 12.5 2.17157 12.5 3V6C12.5 6.41421 12.8358 6.75 13.25 6.75C13.6642 6.75 14 6.41421 14 6V3C14 1.34315 12.6569 0 11 0H3.5C1.84315 0 0.5 1.34315 0.5 3V15C0.5 16.6569 1.84315 18 3.5 18H11C12.6569 18 14 16.6569 14 15V12C14 11.5858 13.6642 11.25 13.25 11.25C12.8358 11.25 12.5 11.5858 12.5 12V15C12.5 15.8284 11.8284 16.5 11 16.5H3.5C2.67157 16.5 2 15.8284 2 15V3C2 2.17157 2.67157 1.5 3.5 1.5H11ZM18.9393 9.75L17.2197 11.4697C16.9268 11.7626 16.9268 12.2374 17.2197 12.5303C17.5126 12.8232 17.9874 12.8232 18.2803 12.5303L21.2803 9.53033C21.5732 9.23744 21.5732 8.76256 21.2803 8.46967L18.2803 5.46967C17.9874 5.17678 17.5126 5.17678 17.2197 5.46967C16.9268 5.76256 16.9268 6.23744 17.2197 6.53033L18.9393 8.25H5.75C5.33579 8.25 5 8.58579 5 9C5 9.41421 5.33579 9.75 5.75 9.75H18.9393Z" fill="#282B33"/>
</svg>
