<svg width="53" height="54" viewBox="0 0 53 54" fill="none" xmlns="http://www.w3.org/2000/svg">
<path d="M12.5 12C11.3954 12 10.5 12.8954 10.5 14C10.5 15.1046 11.3954 16 12.5 16H32.5C33.6046 16 34.5 15.1046 34.5 14C34.5 12.8954 33.6046 12 32.5 12H12.5Z" fill="#006C84"/>
<path d="M12.5 22C11.3954 22 10.5 22.8954 10.5 24C10.5 25.1046 11.3954 26 12.5 26H28.5C29.6046 26 30.5 25.1046 30.5 24C30.5 22.8954 29.6046 22 28.5 22H12.5Z" fill="#006C84"/>
<path fill-rule="evenodd" clip-rule="evenodd" d="M0.5 8C0.5 3.58172 4.08172 0 8.5 0H36.5C40.9183 0 44.5 3.58172 44.5 8C48.9183 8 52.5 11.5817 52.5 16V38C52.5 42.4183 48.9183 46 44.5 46V52C44.5 52.7688 44.0593 53.4696 43.3664 53.8026C42.6735 54.1356 41.851 54.042 41.2506 53.5617L31.7985 46H18.5C16.5855 46 14.8244 45.3252 13.4478 44.203L11.7494 45.5617C11.149 46.042 10.3266 46.1356 9.63362 45.8026C8.94069 45.4696 8.5 44.7688 8.5 44V38C4.08172 38 0.5 34.4183 0.5 30V8ZM16.7212 41.5843C17.2567 41.8507 17.86 42 18.5 42H32.5C32.9542 42 33.3948 42.1546 33.7494 42.4383L40.5 47.8388V44C40.5 42.8954 41.3954 42 42.5 42H44.5C46.7092 42 48.5 40.2091 48.5 38V16C48.5 13.7909 46.7092 12 44.5 12L44.5 30C44.5 34.4183 40.9183 38 36.5 38H21.2016L16.7212 41.5843ZM8.5 4C6.29086 4 4.5 5.79086 4.5 8V30C4.5 32.2091 6.29086 34 8.5 34H10.5C11.6046 34 12.5 34.8954 12.5 36V39.8388L19.2506 34.4383C19.6052 34.1546 20.0459 34 20.5 34H36.5C38.7091 34 40.5 32.2091 40.5 30V8C40.5 5.79086 38.7091 4 36.5 4H8.5Z" fill="#006C84"/>
</svg>
