<svg width="22" height="16" viewBox="0 0 22 16" fill="none" xmlns="http://www.w3.org/2000/svg">
<path fill-rule="evenodd" clip-rule="evenodd" d="M1.5 0.5C1.08579 0.5 0.75 0.835786 0.75 1.25C0.75 1.66421 1.08579 2 1.5 2H21C21.4142 2 21.75 1.66421 21.75 1.25C21.75 0.835786 21.4142 0.5 21 0.5H1.5ZM0.75 8C0.75 7.58579 1.08579 7.25 1.5 7.25H21C21.4142 7.25 21.75 7.58579 21.75 8C21.75 8.41421 21.4142 8.75 21 8.75H1.5C1.08579 8.75 0.75 8.41421 0.75 8ZM0.75 14.75C0.75 14.3358 1.08579 14 1.5 14H21C21.4142 14 21.75 14.3358 21.75 14.75C21.75 15.1642 21.4142 15.5 21 15.5H1.5C1.08579 15.5 0.75 15.1642 0.75 14.75Z" fill="#3D424D"/>
</svg>
