<svg width="21" height="22" viewBox="0 0 21 22" fill="none" xmlns="http://www.w3.org/2000/svg">
<path fill-rule="evenodd" clip-rule="evenodd" d="M10.5 0.5C6.35786 0.5 3 3.85786 3 8V14.0945C1.70608 14.4275 0.75 15.6021 0.75 17C0.75 18.6569 2.09315 20 3.75 20H8.37803C8.68691 20.8739 9.52034 21.5 10.5 21.5C11.4797 21.5 12.3131 20.8739 12.622 20H17.25C18.9069 20 20.25 18.6569 20.25 17C20.25 15.6021 19.2939 14.4275 18 14.0945V8C18 3.85786 14.6421 0.5 10.5 0.5ZM4.5 8C4.5 4.68629 7.18629 2 10.5 2C13.8137 2 16.5 4.68629 16.5 8V14.75C16.5 15.1642 16.8358 15.5 17.25 15.5C18.0784 15.5 18.75 16.1716 18.75 17C18.75 17.8284 18.0784 18.5 17.25 18.5H3.75C2.92157 18.5 2.25 17.8284 2.25 17C2.25 16.1716 2.92157 15.5 3.75 15.5C4.16421 15.5 4.5 15.1642 4.5 14.75V8Z" fill="#3D424D"/>
</svg>
