<svg width="28" height="28" viewBox="0 0 28 28" fill="none" xmlns="http://www.w3.org/2000/svg">
<path fill-rule="evenodd" clip-rule="evenodd" d="M0 4C0 1.79086 1.79086 0 4 0H20C22.2091 0 24 1.79086 24 4V16.3414C26.3304 17.1651 28 19.3876 28 22C28 25.3137 25.3137 28 22 28C19.3876 28 17.1651 26.3304 16.3414 24H4.19047L4.18032 24.0001L4.16116 24H4C1.79086 24 0 22.2091 0 20V4ZM22 4V16C20.7723 16 19.6307 16.3687 18.6799 17.0015C18.4336 16.6806 18.1678 16.3848 17.8827 16.114C17.0668 15.3389 16.1264 14.8007 15.0971 14.4613C15.303 14.2317 15.491 13.9868 15.6599 13.7339C16.493 12.4871 17 10.8654 17 9.28571C17 7.68186 16.4748 6.34255 15.5367 5.40138C14.6027 4.46428 13.3366 4 12 4C10.6634 4 9.39732 4.46428 8.4633 5.40138C7.52523 6.34255 7 7.68186 7 9.28571C7 10.8654 7.50705 12.4871 8.34009 13.7339C8.50903 13.9868 8.69703 14.2317 8.90284 14.4613C7.87357 14.8006 6.93316 15.3389 6.11721 16.114C4.72423 17.4371 3.79257 19.3573 3.33375 21.8863C2.55674 21.6119 2 20.871 2 20V4C2 2.89543 2.89543 2 4 2H20C21.1046 2 22 2.89543 22 4ZM16.5053 17.564C16.7555 17.8017 16.9924 18.0731 17.2134 18.3817C16.4518 19.3876 16 20.641 16 22H5.3477C5.76571 19.8936 6.53171 18.4787 7.49463 17.564C8.60866 16.5058 10.1101 16 12 16C13.8899 16 15.3913 16.5058 16.5053 17.564ZM9 9.28571C9 8.12815 9.3702 7.32459 9.87985 6.81326C10.3935 6.29787 11.1275 6 12 6C12.8725 6 13.6065 6.29787 14.1202 6.81326C14.6298 7.32459 15 8.12815 15 9.28571C15 10.4674 14.6116 11.7029 13.9969 12.6228C13.3684 13.5635 12.6356 14 12 14C11.3644 14 10.6316 13.5635 10.0031 12.6228C9.38838 11.7029 9 10.4674 9 9.28571ZM23 19C23 18.4477 22.5523 18 22 18C21.4477 18 21 18.4477 21 19V21H19C18.4477 21 18 21.4477 18 22C18 22.5523 18.4477 23 19 23H21V25C21 25.5523 21.4477 26 22 26C22.5523 26 23 25.5523 23 25V23H25C25.5523 23 26 22.5523 26 22C26 21.4477 25.5523 21 25 21H23V19Z" fill="#006C84"/>
</svg>
