<svg width="22" height="22" viewBox="0 0 22 22" fill="none" xmlns="http://www.w3.org/2000/svg">
<path fill-rule="evenodd" clip-rule="evenodd" d="M0.5 11C0.5 5.20101 5.20101 0.5 11 0.5C16.799 0.5 21.5 5.20101 21.5 11C21.5 14.0277 20.2185 16.7562 18.1683 18.6725L18.1563 18.6836C16.281 20.431 13.7654 21.5 11 21.5C8.23486 21.5 5.71936 20.4311 3.84414 18.684L3.83129 18.6721C1.78134 16.7558 0.5 14.0275 0.5 11ZM20 11C20 13.0697 19.3014 14.9762 18.1271 16.4966C17.7261 14.8428 17.0044 13.5644 15.9776 12.6526C15.2268 11.9858 14.3459 11.5444 13.3749 11.2869C13.5091 11.132 13.6326 10.9686 13.7449 10.8005C14.3697 9.86535 14.75 8.64908 14.75 7.46429C14.75 6.26139 14.3561 5.25691 13.6525 4.55104C12.952 3.84821 12.0025 3.5 11 3.5C9.99752 3.5 9.04799 3.84821 8.34747 4.55104C7.64392 5.25691 7.25 6.26139 7.25 7.46429C7.25 8.64908 7.63029 9.86535 8.25507 10.8005C8.36739 10.9686 8.49095 11.132 8.62508 11.2869C7.65407 11.5444 6.7732 11.9858 6.02238 12.6526C4.99555 13.5644 4.27386 14.8428 3.87292 16.4966C2.69863 14.9762 2 13.0697 2 11C2 6.02944 6.02944 2 11 2C15.9706 2 20 6.02944 20 11ZM11 20C8.76328 20 6.71714 19.1841 5.14297 17.8336C5.42583 15.8688 6.10727 14.5832 7.01839 13.7742C7.98769 12.9134 9.32039 12.5 11 12.5C12.6796 12.5 14.0123 12.9134 14.9816 13.7742C15.8927 14.5832 16.5742 15.8688 16.857 17.8336C15.2829 19.1841 13.2367 20 11 20ZM8.75 7.46429C8.75 6.59611 9.02765 5.99345 9.40988 5.60995C9.79516 5.2234 10.3456 5 11 5C11.6544 5 12.2048 5.2234 12.5901 5.60995C12.9724 5.99345 13.25 6.59611 13.25 7.46429C13.25 8.35056 12.9587 9.27714 12.4977 9.96713C12.0263 10.6726 11.4767 11 11 11C10.5233 11 9.97367 10.6726 9.50229 9.96713C9.04129 9.27714 8.75 8.35056 8.75 7.46429Z" fill="#282B33"/>
</svg>
