<svg width="14" height="11" viewBox="0 0 14 11" fill="none" xmlns="http://www.w3.org/2000/svg">
<path d="M7.5 5.5C7.5 5.22386 7.72386 5 8 5H11.5C11.7761 5 12 5.22386 12 5.5C12 5.77614 11.7761 6 11.5 6H8C7.72386 6 7.5 5.77614 7.5 5.5Z" fill="#282B33"/>
<path d="M8 7C7.72386 7 7.5 7.22386 7.5 7.5C7.5 7.77614 7.72386 8 8 8H11.5C11.7761 8 12 7.77614 12 7.5C12 7.22386 11.7761 7 11.5 7H8Z" fill="#282B33"/>
<path fill-rule="evenodd" clip-rule="evenodd" d="M4.5 0.75C4.5 0.335786 4.83579 0 5.25 0H8.75C9.16421 0 9.5 0.335786 9.5 0.75V1H12C13.1046 1 14 1.89543 14 3V9C14 10.1046 13.1046 11 12 11H2C0.895431 11 0 10.1046 0 9V3C0 1.89543 0.89543 1 2 1H4.5V0.75ZM9.5 2.25V2H12C12.5523 2 13 2.44772 13 3V9C13 9.55229 12.5523 10 12 10H7.47614C7.39803 9.21824 7.12701 8.60383 6.64551 8.17391C6.42702 7.97884 6.17882 7.83418 5.91023 7.73C5.9298 7.70474 5.9488 7.67921 5.96722 7.65348C6.29758 7.19201 6.5 6.59079 6.5 6C6.5 5.39447 6.28595 4.88174 5.90242 4.5226C5.52409 4.16833 5.02021 4 4.5 4C3.97979 4 3.47591 4.16833 3.09758 4.5226C2.71405 4.88174 2.5 5.39447 2.5 6C2.5 6.59079 2.70242 7.19201 3.03278 7.65348C3.0512 7.67921 3.0702 7.70474 3.08977 7.73C2.82118 7.83418 2.57298 7.97883 2.35449 8.17391C1.89655 8.58278 1.62899 9.15854 1.53672 9.88644C1.21768 9.71936 1 9.3851 1 9V3C1 2.44772 1.44772 2 2 2H4.5V2.25C4.5 2.66421 4.83579 3 5.25 3H8.75C9.16421 3 9.5 2.66421 9.5 2.25ZM6.46999 10C6.39932 9.45656 6.21083 9.1264 5.97949 8.91985C5.67319 8.64636 5.19326 8.5 4.5 8.5C3.80673 8.5 3.32681 8.64636 3.02051 8.91984C2.78917 9.1264 2.60068 9.45655 2.53001 10H6.46999ZM5.5 2H8.5V1H5.5V2ZM5.1541 7.07139C4.93735 7.37416 4.69569 7.5 4.5 7.5C4.30431 7.5 4.06265 7.37416 3.8459 7.07139C3.63336 6.77449 3.5 6.37571 3.5 6C3.5 5.63903 3.62174 5.40176 3.7811 5.25253C3.94567 5.09842 4.19178 5 4.5 5C4.80822 5 5.05433 5.09842 5.2189 5.25253C5.37826 5.40176 5.5 5.63903 5.5 6C5.5 6.37571 5.36664 6.77449 5.1541 7.07139Z" fill="#282B33"/>
</svg>
