<svg width="28" height="28" viewBox="0 0 28 28" fill="none" xmlns="http://www.w3.org/2000/svg">
<path fill-rule="evenodd" clip-rule="evenodd" d="M27.9652 0.738281C27.9564 0.705679 27.9457 0.673215 27.9333 0.640998C27.9313 0.635642 27.9292 0.630301 27.927 0.624982C27.8748 0.495711 27.7984 0.383164 27.7051 0.290549C27.6133 0.199215 27.5023 0.124382 27.375 0.0729467C27.3453 0.0609209 27.315 0.0503113 27.2842 0.0411662C27.19 0.0131172 27.0944 -0.000312539 27 -0.000292278C26.9056 -0.000312577 26.81 0.0131169 26.7158 0.041166C26.6893 0.0490425 26.6631 0.0580057 26.6374 0.0680243L0.641021 10.0666C0.271221 10.2089 0.0202677 10.556 0.00116323 10.9518C-0.0179413 11.3475 0.198406 11.7172 0.552786 11.8944L8.55279 15.8944C8.85859 16.0473 9.22132 16.0334 9.5145 15.8575L16.0845 11.9155L12.1425 18.4855C11.9666 18.7787 11.9527 19.1414 12.1056 19.4472L16.1056 27.4472C16.2828 27.8016 16.6525 28.0179 17.0482 27.9988C17.444 27.9797 17.7911 27.7288 17.9333 27.359L27.932 1.36238C27.942 1.33671 27.951 1.31063 27.9588 1.2842C27.9869 1.18995 28.0003 1.09433 28.0003 0.999977C28.0003 0.91313 27.9889 0.825214 27.9652 0.738281ZM25.259 2.74103L3.47503 11.1195L8.95622 13.8601L18.4677 8.15315C18.6273 8.05301 18.8124 8.00001 19 7.99983C19.2614 8.00007 19.5178 8.10286 19.7073 8.29278C19.8972 8.48235 19.9999 8.73862 20.0002 8.99998C20 9.18762 19.947 9.37264 19.8468 9.53224L14.1399 19.0438L16.8805 24.5249L25.259 2.74103Z" fill="#006C84"/>
</svg>
