<svg width="22" height="17" viewBox="0 0 22 17" fill="none" xmlns="http://www.w3.org/2000/svg">
<path fill-rule="evenodd" clip-rule="evenodd" d="M12.963 0.0570819C13.2432 -0.059004 13.5658 0.00516275 13.7803 0.219661L21.2803 7.71966C21.5732 8.01255 21.5732 8.48743 21.2803 8.78032L13.7803 16.2803C13.5658 16.4948 13.2432 16.559 12.963 16.4429C12.6827 16.3268 12.5 16.0533 12.5 15.75L12.5 12.006C8.92212 12.0663 4.76222 12.6416 1.83043 16.2249C1.62006 16.482 1.2656 16.5701 0.959344 16.4414C0.653083 16.3127 0.468004 15.9978 0.504507 15.6676C1.18434 9.51769 6.29153 4.86941 12.5 4.52098L12.5 0.749991C12.5 0.446645 12.6827 0.173168 12.963 0.0570819ZM14 2.56065L14 5.24999C14 5.4489 13.921 5.63967 13.7803 5.78032C13.6396 5.92097 13.4489 5.99999 13.25 5.99999C8.30449 5.99999 4.07344 9.06296 2.54118 13.4301C5.93188 10.7539 10.0947 10.5 13.25 10.5C13.4489 10.5 13.6396 10.579 13.7803 10.7197C13.921 10.8603 14 11.0511 14 11.25L14 13.9393L19.6893 8.24999L14 2.56065Z" fill="#006C84"/>
</svg>
