<svg width="28" height="26" viewBox="0 0 28 26" fill="none" xmlns="http://www.w3.org/2000/svg">
<path fill-rule="evenodd" clip-rule="evenodd" d="M14 0C14.3764 0 14.7208 0.211287 14.8914 0.546747L18.6726 7.98296L27.1397 9.17704C27.52 9.23067 27.836 9.4974 27.9527 9.86332C28.0695 10.2292 27.9663 10.6297 27.6873 10.8937L21.5785 16.6731L23.0192 24.826C23.0853 25.1995 22.9342 25.5783 22.6292 25.8039C22.3243 26.0295 21.9179 26.0632 21.58 25.8907L14 22.0231L6.42006 25.8907C6.08215 26.0632 5.67578 26.0295 5.37081 25.8039C5.06585 25.5783 4.9148 25.1995 4.98082 24.826L6.42157 16.6731L0.312777 10.8937C0.0337682 10.6297 -0.0693981 10.2292 0.0473328 9.86332C0.164064 9.4974 0.480061 9.23067 0.860387 9.17704L9.32746 7.98296L13.1086 0.546748C13.2792 0.211287 13.6237 0 14 0ZM14 3.20628L10.8742 9.35369C10.7262 9.64463 10.4456 9.84506 10.1224 9.89064L3.19531 10.8675L8.18729 15.5904C8.43151 15.8215 8.54328 16.1598 8.48477 16.4908L7.29975 23.1966L13.5455 20.0097C13.831 19.864 14.169 19.864 14.4545 20.0097L20.7003 23.1966L19.5153 16.4908C19.4568 16.1598 19.5686 15.8215 19.8128 15.5904L24.8048 10.8675L17.8776 9.89064C17.5544 9.84506 17.2738 9.64463 17.1259 9.35369L14 3.20628Z" fill="#3D424D"/>
</svg>
