<svg width="22" height="6" viewBox="0 0 22 6" fill="none" xmlns="http://www.w3.org/2000/svg">
<path d="M5 3C5 4.24264 3.99264 5.25 2.75 5.25C1.50736 5.25 0.5 4.24264 0.5 3C0.5 1.75736 1.50736 0.75 2.75 0.75C3.99264 0.75 5 1.75736 5 3Z" fill="#3D424D"/>
<path d="M11 5.25C12.2426 5.25 13.25 4.24264 13.25 3C13.25 1.75736 12.2426 0.75 11 0.75C9.75736 0.75 8.75 1.75736 8.75 3C8.75 4.24264 9.75736 5.25 11 5.25Z" fill="#3D424D"/>
<path d="M19.25 5.25C20.4926 5.25 21.5 4.24264 21.5 3C21.5 1.75736 20.4926 0.75 19.25 0.75C18.0074 0.75 17 1.75736 17 3C17 4.24264 18.0074 5.25 19.25 5.25Z" fill="#3D424D"/>
</svg>
