<svg width="22" height="5" viewBox="0 0 22 5" fill="none" xmlns="http://www.w3.org/2000/svg">
<path d="M5 2.5C5 3.74264 3.99264 4.75 2.75 4.75C1.50736 4.75 0.5 3.74264 0.5 2.5C0.5 1.25736 1.50736 0.25 2.75 0.25C3.99264 0.25 5 1.25736 5 2.5Z" fill="#3D424D"/>
<path d="M11 4.75C12.2426 4.75 13.25 3.74264 13.25 2.5C13.25 1.25736 12.2426 0.25 11 0.25C9.75736 0.25 8.75 1.25736 8.75 2.5C8.75 3.74264 9.75736 4.75 11 4.75Z" fill="#3D424D"/>
<path d="M19.25 4.75C20.4926 4.75 21.5 3.74264 21.5 2.5C21.5 1.25736 20.4926 0.25 19.25 0.25C18.0074 0.25 17 1.25736 17 2.5C17 3.74264 18.0074 4.75 19.25 4.75Z" fill="#3D424D"/>
</svg>
