<svg width="21" height="18" viewBox="0 0 21 18" fill="none" xmlns="http://www.w3.org/2000/svg">
<path d="M21 2.31346C20.1892 2.63654 19.3784 2.87885 18.4865 3.04038C19.3784 2.55577 20.027 1.66731 20.3514 0.698077C19.5405 1.18269 18.5676 1.50577 17.5946 1.74808C16.7838 0.940385 15.6486 0.375 14.4324 0.375C12.0811 0.375 10.1351 2.31346 10.1351 4.65577C10.1351 4.97885 10.2162 5.30192 10.2973 5.625C6.72973 5.46346 3.56757 3.76731 1.37838 1.10192C1.05405 1.74808 0.810811 2.475 0.810811 3.28269C0.810811 4.73654 1.54054 6.02885 2.75676 6.83654C2.02703 6.83654 1.37838 6.59423 0.72973 6.35192V6.43269C0.72973 8.53269 2.18919 10.3096 4.21622 10.7135C3.89189 10.7942 3.48649 10.875 3.08108 10.875C2.83784 10.875 2.51351 10.7942 2.27027 10.7942C2.83784 12.4904 4.45946 13.7827 6.32432 13.7827C4.86487 14.9135 3 15.6404 0.972973 15.6404C0.648649 15.6404 0.243243 15.6404 0 15.5596C1.86487 16.6096 4.05405 17.3365 6.56757 17.3365C14.5135 17.3365 18.8919 10.7942 18.8919 5.05962C18.8919 4.89808 18.8919 4.65577 18.8919 4.49423C19.7027 3.92885 20.4324 3.20192 21 2.31346Z" fill="#006C84"/>
</svg>
