<svg width="21" height="16" viewBox="0 0 21 16" fill="none" xmlns="http://www.w3.org/2000/svg">
<path fill-rule="evenodd" clip-rule="evenodd" d="M8.4 11.1501V4.85017L13.8557 8.00021L8.4 11.1501ZM20.5611 2.94559C20.3196 2.04204 19.608 1.33037 18.7044 1.08889C17.0669 0.649994 10.5001 0.649994 10.5001 0.649994C10.5001 0.649994 3.9331 0.649994 2.29542 1.08889C1.39188 1.33037 0.68038 2.04204 0.438721 2.94559C0 4.58327 0 8.00004 0 8.00004C0 8.00004 0 11.417 0.438721 13.0547C0.68038 13.9582 1.39188 14.6697 2.29542 14.9112C3.9331 15.3501 10.5001 15.3501 10.5001 15.3501C10.5001 15.3501 17.0669 15.3501 18.7044 14.9112C19.608 14.6697 20.3196 13.9582 20.5611 13.0547C21 11.417 21 8.00004 21 8.00004C21 8.00004 21 4.58327 20.5611 2.94559Z" fill="#006C84"/>
</svg>
