<svg width="48" height="48" viewBox="0 0 48 48" fill="none" xmlns="http://www.w3.org/2000/svg">
<path d="M21.836 27.866H23.248V35.456H21.836V34.618C21.576 34.926 21.304 35.162 21.026 35.324C20.264 35.76 19.222 35.75 19.222 34.21V27.866H20.632V33.684C20.632 33.99 20.706 34.196 21.008 34.196C21.284 34.196 21.666 33.844 21.838 33.628V27.866H21.836ZM23.12 19.504C23.52 19.504 23.742 19.184 23.742 18.75V15.042C23.742 14.596 23.546 14.282 23.094 14.282C22.678 14.282 22.476 14.604 22.476 15.042V18.75C22.474 19.17 22.71 19.504 23.12 19.504ZM19.238 25.166H14.36V26.66H16.006V35.456H17.596V26.66H19.238V25.166ZM28.68 29.672V33.882C28.68 34.822 28.328 35.55 27.39 35.55C26.872 35.55 26.442 35.362 26.048 34.87V35.454H24.624V25.164H26.048V28.476C26.368 28.088 26.798 27.768 27.304 27.768C28.338 27.77 28.68 28.642 28.68 29.672V29.672ZM27.226 29.758C27.226 29.502 27.178 29.308 27.076 29.174C26.904 28.948 26.588 28.924 26.342 29.05L26.05 29.282V34.012L26.384 34.28C26.614 34.396 26.95 34.404 27.106 34.202C27.186 34.094 27.228 33.92 27.228 33.678V29.758H27.226ZM48 24C48 37.254 37.254 48 24 48C10.746 48 0 37.254 0 24C0 10.746 10.746 0 24 0C37.254 0 48 10.746 48 24V24ZM26.508 19.498C26.508 20.286 26.748 20.922 27.546 20.922C27.994 20.922 28.614 20.688 29.256 19.926V20.806H30.738V12.834H29.256V18.884C29.076 19.11 28.674 19.482 28.384 19.482C28.066 19.482 27.99 19.266 27.99 18.944V12.834H26.508V19.498V19.498ZM20.95 14.91V18.818C20.95 20.224 21.684 20.954 23.12 20.954C24.314 20.954 25.25 20.156 25.25 18.818V14.91C25.25 13.662 24.32 12.768 23.12 12.768C21.816 12.768 20.95 13.632 20.95 14.91V14.91ZM15.428 10L17.414 16.422V20.804H19.084V16.422L21.026 10H19.33L18.26 14.32L17.11 10H15.428V10ZM35.666 30.416C35.64 25.206 35.258 23.212 31.97 22.988C28.934 22.78 19.06 22.782 16.028 22.988C12.744 23.212 12.358 25.196 12.332 30.416C12.358 35.628 12.74 37.62 16.028 37.846C19.06 38.052 28.934 38.052 31.97 37.846C35.256 37.62 35.64 35.638 35.666 30.416ZM33.896 29.906V31.838H31.196V33.27C31.196 33.84 31.244 34.332 31.812 34.332C32.408 34.332 32.442 33.932 32.442 33.27V32.742H33.896V33.312C33.896 34.774 33.27 35.66 31.782 35.66C30.43 35.66 29.744 34.678 29.744 33.312V29.904C29.744 28.586 30.614 27.672 31.886 27.672C33.242 27.674 33.896 28.534 33.896 29.906V29.906ZM32.444 29.892C32.444 29.38 32.336 29.002 31.826 29.002C31.304 29.002 31.198 29.37 31.198 29.892V30.662H32.444V29.892Z" fill="#EE3030"/>
</svg>
